<svg width="198" height="149" viewBox="0 0 198 149" fill="none" xmlns="http://www.w3.org/2000/svg">
<path d="M162.688 42.3952C161.403 42.5908 160.268 41.3861 160.726 40.1652C160.773 40.0393 160.836 39.9368 160.92 39.8585C161.851 39.0013 163.005 38.3069 164.176 37.8028C169.733 35.4047 175.311 33.0537 180.889 30.7027L180.89 30.7021L180.915 30.6919C182.239 30.1336 183.564 29.575 184.888 29.0162C185.079 28.936 185.271 28.845 185.463 28.754C186.026 28.4873 186.595 28.2174 187.164 28.1992C187.867 28.1769 189.105 28.5622 189.173 28.9474C189.312 29.7366 189.056 30.8451 188.532 31.4535C188.022 32.0483 187.18 32.3946 186.385 32.7214C186.259 32.7734 186.134 32.8244 186.012 32.8764C178.81 35.937 171.606 38.9973 164.371 41.9778C163.861 42.1888 163.31 42.3008 162.688 42.3952Z" fill="#C9C9C9"/>
<path fill-rule="evenodd" clip-rule="evenodd" d="M26.7095 107.265C35.8109 113.02 45.7082 116.541 57.0726 118.461C57.2422 120.857 57.4093 123.224 57.5752 125.57V125.573L57.5826 125.675L57.5836 125.69C57.9654 131.099 58.3399 136.399 58.7187 141.698C58.7472 142.097 58.7651 142.499 58.783 142.9C58.831 143.973 58.879 145.048 59.1284 146.073C59.7195 148.506 61.6128 149.124 63.5015 147.424C64.9417 146.127 66.1588 144.547 67.3069 142.97C72.3976 135.98 77.4617 128.97 82.4596 121.913C84.619 118.864 87.259 116.976 91.0203 115.97C105.079 112.21 117.183 105.006 126.684 93.8789C137.03 81.7621 142.066 67.7718 139.917 51.757C137.534 34.0096 127.524 21.0554 112.762 11.8419C84.4188 -5.84898 45.7537 -2.74737 20.4078 19.0457C9.94689 28.0394 3.01738 39.3271 0.747951 53.1212C-2.69751 74.0586 7.52762 95.1356 26.7095 107.265ZM64.7687 139.48C64.2531 140.146 63.6939 140.868 63.0741 141.678C62.8448 139.24 62.635 136.916 62.4319 134.672L62.4292 134.643L62.4285 134.634C61.9814 129.688 61.5692 125.128 61.0635 120.579C60.4415 114.99 60.1735 114.937 54.9992 113.914L54.7003 113.854C36.5369 110.255 21.1662 102.13 11.2072 85.852C0.87674 68.9679 1.83793 48.2991 13.6851 32.4496C27.5969 13.8393 46.8804 5.56968 69.5292 4.63175C87.0752 3.90723 103.246 8.56427 116.986 19.7705C143.776 41.6202 142.341 77.5336 115.51 99.1633C107.265 105.809 97.921 110.413 87.5512 112.703C84.5995 113.354 82.5444 114.936 80.876 117.254C78.8995 119.999 76.9285 122.748 74.9578 125.496C72.4614 128.977 69.9656 132.458 67.4583 135.931C66.6444 137.058 65.7924 138.158 64.7696 139.479L64.7687 139.48Z" fill="#C9C9C9"/>
<path d="M166.945 81.3154C166.964 81.3312 166.984 81.347 167.003 81.3631C167.023 81.3795 167.043 81.3962 167.062 81.4132C167.025 81.4698 166.987 81.5259 166.949 81.5834C168.423 82.5941 169.896 83.607 171.369 84.6199L171.373 84.6233C174.854 87.017 178.335 89.411 181.834 91.7759L182.1 91.9554C184.568 93.6241 187.048 95.2995 189.655 96.7169C189.823 96.8091 190.025 96.8351 190.25 96.8193C191.545 96.7314 192.305 95.3574 191.862 94.1214C191.808 93.9707 191.751 93.8212 191.69 93.6723C191.619 93.4997 191.403 93.3821 191.188 93.2651C191.092 93.2131 190.997 93.1614 190.915 93.1048C189.304 91.9938 187.696 90.8813 186.087 89.7688C180.475 85.8887 174.863 82.008 169.206 78.1976C168.44 77.6823 166.87 77.3722 166.29 77.7959C164.967 78.7623 165.763 80.0491 166.696 81.0898C166.771 81.1731 166.858 81.2442 166.945 81.3154Z" fill="#C9C9C9"/>
<path d="M166.764 59.379C166.004 60.529 166.78 62.0973 168.126 62.4022C168.958 62.5903 169.663 62.741 170.376 62.8301C177.993 63.7845 185.609 64.7386 193.238 65.585C193.533 65.6178 193.854 65.6751 194.186 65.7339C195.843 66.0288 197.757 66.3692 197.908 63.9185C198.03 61.9476 196.156 61.7928 194.548 61.6604C194.261 61.6365 193.982 61.6136 193.725 61.5812C185.948 60.5971 178.164 59.6606 170.376 58.7762C169.28 58.6508 167.988 58.605 167.077 59.0791C166.954 59.1429 166.852 59.245 166.764 59.379Z" fill="#C9C9C9"/>
</svg>
