<svg width="492" height="496" viewBox="0 0 492 496" fill="none" xmlns="http://www.w3.org/2000/svg">
<path fill-rule="evenodd" clip-rule="evenodd" d="M454.425 34.3823C454.181 34.3514 453.957 34.3205 453.743 34.2907C453.783 28.415 453.831 22.6842 453.661 16.966C453.441 9.51473 449.893 5.75234 442.726 5.01881C439.428 4.68239 436.086 4.72391 432.764 4.7484C384.393 5.10505 336.022 5.55113 287.652 5.84603C248.879 6.08131 210.105 6.08663 171.331 6.29424C131.268 6.50929 91.2046 6.84891 51.1417 7.12571C39.6942 7.20449 28.2466 7.19278 16.8001 7.34502C9.29302 7.4451 6.34786 9.84477 5.36174 17.7454C4.55436 24.2162 4.69147 30.8179 4.38477 37.9402C4.50663 37.9541 4.6153 37.9679 4.73209 37.9818C4.73514 38.7749 4.74224 39.5627 4.75748 40.3484C4.96059 51.1054 5.25003 61.8603 5.41456 72.6172C6.03609 113.26 6.61394 153.905 7.22329 194.549C7.72092 227.821 8.24902 261.093 8.75071 294.366C9.51645 345.169 10.268 395.973 11.0347 446.776C11.1322 453.279 11.2805 459.782 11.4156 466.775C161.38 465.799 310.803 464.829 460.843 463.854C458.699 320.407 456.567 177.647 454.425 34.3823Z" fill="white"/>
<path fill-rule="evenodd" clip-rule="evenodd" d="M6.61049 38.2169H6.61038C5.96143 38.1324 5.23388 38.0378 4.38455 37.9407C4.48052 35.7133 4.53303 33.5368 4.58462 31.3992V31.3989C4.69786 26.7017 4.80673 22.1925 5.36153 17.7447C6.34766 9.84416 9.29281 7.44555 16.7999 7.34548C24.1756 7.24743 31.5516 7.21741 38.9279 7.18738H38.928C42.9991 7.17078 47.0704 7.15427 51.1415 7.12617C64.3416 7.03461 77.542 6.93656 90.7414 6.8384C117.605 6.63868 144.468 6.43895 171.331 6.29469C189.476 6.1976 207.622 6.14469 225.766 6.09188H225.767C246.395 6.03184 267.023 5.97169 287.651 5.84649C318.044 5.66124 348.436 5.41627 378.828 5.1713H378.829C396.807 5.02641 414.786 4.8814 432.765 4.74886L433.215 4.74556C436.387 4.72139 439.577 4.69701 442.726 5.01927C449.892 5.7528 453.44 9.51519 453.661 16.9654C453.824 22.4384 453.787 27.9175 453.749 33.5291V33.5295V33.5301V33.5337V33.5373C453.731 36.0217 453.714 38.532 453.714 41.0792C453.589 41.1092 453.435 41.1597 453.259 41.2172C452.79 41.3702 452.17 41.5729 451.551 41.569C441.912 41.51 432.271 41.3718 422.629 41.2337C402.364 40.9434 382.097 40.653 361.844 41.0973C292.245 42.624 222.648 42.5111 153.048 42.0023C123.884 41.7893 94.7194 41.2208 65.5613 40.5554C52.1922 40.2499 38.8285 39.7048 25.4645 39.1597H25.4641H25.4638L25.4611 39.1596C20.2012 38.9451 14.9411 38.7304 9.68076 38.5305C8.74552 38.4946 7.81333 38.3734 6.61089 38.2169H6.61049ZM452.961 46.7156C453.384 46.7762 453.862 46.8448 454.425 46.9144C455.657 126.929 456.886 206.781 458.116 286.692C459.023 345.714 459.932 404.767 460.842 463.941C310.803 464.887 161.379 465.829 11.4143 466.775C11.3706 464.557 11.3253 462.391 11.2807 460.258C11.1888 455.861 11.0998 451.608 11.0335 447.356C10.6638 423.54 10.2975 399.725 9.9311 375.909C9.53858 350.394 9.14606 324.878 8.74948 299.363C8.50808 283.781 8.26018 268.2 8.01238 252.618C7.7463 235.891 7.48022 219.165 7.22206 202.44C6.96563 185.826 6.71489 169.214 6.46414 152.601V152.6V152.599C6.11915 129.747 5.77426 106.894 5.41434 84.0416C5.31705 77.8641 5.17609 71.6872 5.03513 65.5107C4.93774 61.2431 4.84024 56.9757 4.75727 52.7081C4.71939 50.7554 4.72873 48.8017 4.73868 46.7333V46.7332V46.7331C4.74336 45.7557 4.74813 44.7527 4.74813 43.712C5.25053 43.6474 5.72003 43.5677 6.16729 43.4918L6.16749 43.4917C7.06018 43.3401 7.86411 43.2036 8.66316 43.2319C14.4517 43.4401 20.2397 43.6774 26.0276 43.9147H26.0277H26.0278C36.281 44.3352 46.5343 44.7555 56.7911 45.0141C60.5908 45.11 64.3903 45.2076 68.1906 45.3054L68.2018 45.3057C92.6293 45.9336 117.059 46.5616 141.491 46.709C193.548 47.023 245.609 47.1082 297.667 46.8942C319.468 46.8049 341.266 46.4843 363.065 46.1638C380.21 45.9116 397.354 45.6595 414.499 45.5198C422.988 45.4508 431.48 45.7794 439.972 46.1082V46.1083C443.655 46.2509 447.337 46.3934 451.02 46.5035C451.608 46.5214 452.194 46.6055 452.96 46.7155L452.961 46.7156ZM190.667 470.348C205.825 470.258 220.983 470.17 236.141 470.08V470.035C272.782 469.781 309.424 469.528 346.064 469.275C382.705 469.022 419.346 468.77 455.987 468.516C456.971 468.509 457.854 468.515 458.648 468.521H458.652C461.908 468.542 463.64 468.553 464.545 467.652C465.575 466.627 465.536 464.422 465.453 459.711C465.446 459.292 465.439 458.855 465.431 458.397C465.109 438.339 464.745 418.282 464.382 398.224V398.223V398.222L464.381 398.169C464.054 380.136 463.726 362.104 463.429 344.071C462.993 317.475 462.595 290.878 462.198 264.282V264.276V264.272C461.974 249.278 461.75 234.284 461.519 219.291C461.349 208.287 461.171 197.283 460.993 186.279C460.681 167.106 460.37 147.933 460.106 128.759C459.771 104.37 459.478 79.979 459.186 55.5887V55.5883V55.5877L459.183 55.3506C459.048 44.0272 458.912 32.7038 458.772 21.3804C458.769 21.1026 458.767 20.8245 458.764 20.5463C458.756 19.4692 458.749 18.3914 458.664 17.321C457.841 6.96967 452.998 1.41125 443.137 0.228455C440.289 -0.113928 437.393 -0.000119338 434.496 0.113689C433.161 0.166175 431.824 0.218662 430.493 0.226327C414.206 0.31895 397.918 0.409442 381.632 0.499829H381.631L381.63 0.499936C347.341 0.690398 313.052 0.880858 278.763 1.0908C258.263 1.216 237.763 1.35632 217.262 1.49664H217.261C178.141 1.76439 139.02 2.03215 99.8978 2.19482C85.7509 2.25359 71.604 2.15043 57.4568 2.04726C44.6707 1.95411 31.8847 1.86095 19.0992 1.88714C8.70175 1.90844 2.40013 5.41425 0.62186 17.5031C0.230864 20.1646 -0.0331856 22.8837 0.00337503 25.5719C0.132353 35.1516 0.305103 44.7309 0.477852 54.3102C0.60165 61.1746 0.725448 68.039 0.833099 74.9035C1.58158 122.494 2.31888 170.085 3.03892 217.676C3.59109 254.2 4.133 290.723 4.6748 327.247C4.9682 347.02 5.2616 366.794 5.55652 386.567C5.63553 391.855 5.71404 397.144 5.79254 402.433C6.09884 423.066 6.40524 443.7 6.73662 464.333C6.85239 471.514 6.9113 471.568 13.5257 471.538C17.3481 471.52 21.17 471.46 24.9918 471.402H24.9923H24.9928C28.5527 471.346 32.1124 471.291 35.6723 471.27C87.3169 470.954 138.962 470.651 190.607 470.348H190.636H190.667ZM30.8681 18.8244C34.2774 18.7712 36.3116 20.3021 36.3949 22.9839C36.4842 25.8829 32.4199 29.4845 28.9914 29.5452C26.5052 29.5888 24.5442 27.5841 24.3807 24.8342C24.1674 21.256 26.7236 18.8893 30.8681 18.8244ZM41.0289 23.3789C41.1975 17.7236 37.0398 13.9793 30.269 13.6886C24.9372 13.4587 19.9558 18.3847 19.7446 24.0943C19.5496 29.3865 23.4809 34.2572 28.1444 34.5021C34.1667 34.8193 40.8604 29.0395 41.0289 23.3789ZM98.1601 25.1663C98.1998 23.1499 95.4344 20.0986 93.5616 20.0912C91.3375 20.0827 88.6392 23.3255 88.5082 26.1681C88.3853 28.8328 90.0264 30.6608 92.474 30.5841C95.0606 30.5043 98.1124 27.5957 98.1601 25.1663ZM93.9943 15.1854C97.7133 15.0757 102.726 20.3925 102.921 24.6542C103.155 29.7495 97.7966 35.2387 92.4861 35.3441C87.5312 35.441 84.0742 31.998 83.9432 26.8335C83.7888 20.7183 88.4208 15.3504 93.9943 15.1854ZM67.561 25.5772C67.3528 27.6628 64.6676 29.6632 61.1658 29.5578C61.0367 29.3794 60.8393 29.1686 60.616 28.9302C60.0134 28.287 59.2232 27.4434 59.0839 26.4949C58.7366 24.1293 61.7924 21.1846 63.9993 21.2176C65.8335 21.2452 67.758 23.6013 67.561 25.5772ZM64.366 16.4395C59.2179 16.2681 54.4651 21.126 54.399 26.6259C54.3452 31.2506 57.4569 34.4306 62.1063 34.5009C67.1781 34.5765 71.9543 30.4287 72.1554 25.7731C72.3717 20.7896 68.866 16.5896 64.366 16.4395Z" fill="black"/>
<path fill-rule="evenodd" clip-rule="evenodd" d="M246.36 116.624L248.455 116.636C260.576 116.77 268.168 118.476 268.168 126.862C268.168 135.634 285.216 122.146 285.216 129.566C285.216 136.985 265.953 146.694 261.655 146.694C258.789 146.694 255.246 145.781 251.025 143.956C250.699 144.129 250.373 144.299 250.045 144.466C267.144 168.844 273.244 192.895 268.344 216.619C267.299 221.679 251.443 224.829 220.776 226.068L218.889 226.141L221.411 251.042C222.374 253.332 222.918 255.938 222.918 258.704C222.918 267.817 217.006 275.206 209.715 275.206C203.44 275.206 198.188 269.735 196.845 262.4L196.04 262.401L195.963 259.419C195.113 227.727 193.617 210.454 191.476 207.602C166.914 207.602 166.914 194.676 168.259 187.637C168.564 186.043 169.525 184.662 170.856 183.481C169.427 184.138 167.828 184.92 166.061 185.829C151.724 172.517 146.394 162.045 150.07 154.415C155.585 142.969 164.16 140.512 166.061 140.512C167.961 140.512 166.898 114.052 193.953 110.827C220.739 107.634 233.392 116.448 246.36 116.624Z" fill="white"/>
<path fill-rule="evenodd" clip-rule="evenodd" d="M203.089 107.502C204.772 107.527 206.453 107.637 208.125 107.81C212.878 108.299 217.564 109.298 222.225 110.364C225.275 111.06 228.408 111.509 231.532 111.956C232.919 112.155 234.305 112.353 235.681 112.573C239.837 113.237 244.101 113.643 248.29 113.473C252.914 113.286 256.775 111.015 259.301 106.709C259.373 106.585 259.442 106.451 259.512 106.315C259.721 105.908 259.938 105.488 260.264 105.318C260.492 105.198 260.73 105.096 260.972 105.003C262.248 104.517 263.728 105.366 263.87 106.781C263.891 106.994 263.878 107.193 263.815 107.374C261.994 112.555 257.802 115.791 252.404 117.414C248.878 118.473 245.157 118.641 241.531 118.058C236.127 117.188 230.738 116.226 225.348 115.265V115.264C222.722 114.796 220.096 114.327 217.468 113.869C209.25 112.437 201.056 111.608 192.708 113.072C182.521 114.858 175.461 120.421 171.856 130.64C171.676 131.151 171.382 131.89 171.054 132.715L171.054 132.715V132.715C170.452 134.233 169.734 136.041 169.394 137.25C169.029 138.55 168.835 139.438 168.699 140.06C168.528 140.841 168.449 141.202 168.239 141.428C168.058 141.622 167.78 141.716 167.263 141.892C166.707 142.081 165.873 142.365 164.584 142.969C162.927 143.745 159.605 145.607 158.167 146.793C150.272 153.305 148.847 162.328 154.891 170.724C157.229 173.973 160.001 176.881 162.772 179.787C163.92 180.991 165.069 182.196 166.186 183.425C166.449 183.714 166.768 183.955 167.085 184.196C167.484 184.498 167.878 184.798 168.155 185.185C168.505 184.65 168.901 184.135 169.346 183.64C173.442 179.08 178.497 176.501 184.458 176.106C185.313 176.049 185.973 176.039 186.51 176.126C186.537 176.082 186.565 176.041 186.59 176.004C190.344 170.443 190.648 164.097 190.952 157.744C191.006 156.607 191.06 155.47 191.135 154.338L191.136 154.315C191.272 152.543 193.5 151.965 194.564 153.351C194.849 153.72 195.028 154.055 195.05 154.403C195.508 162.144 195.36 169.836 191.25 176.737C190.774 177.537 190.157 178.348 189.414 178.835C189.33 178.891 189.23 178.94 189.12 178.981C189.266 179.684 188.811 180.406 188.097 180.514C187.197 180.651 186.339 180.772 185.483 180.763C181.413 180.723 177.923 182.319 174.742 184.782C171.541 187.264 169.861 190.471 170.532 194.806C171.241 199.381 173.31 202.918 177.691 204.186C180.12 204.889 182.688 205.115 185.232 205.339H185.235C185.624 205.373 186.012 205.407 186.399 205.444C187.737 205.567 189.088 205.539 190.599 205.509H190.6C191.328 205.494 192.092 205.478 192.911 205.478C193.039 206.242 193.183 206.987 193.325 207.721C193.626 209.273 193.916 210.771 194.025 212.285C194.391 217.394 195.007 224.511 195.65 231.92C196.51 241.845 197.416 252.296 197.824 259.147C197.848 259.553 197.923 260.01 197.999 260.482C198.287 262.253 198.609 264.237 196.449 264.574C193.698 265.004 193.605 262.562 193.527 260.494C193.515 260.174 193.504 259.863 193.483 259.572C193.105 254.425 192.433 246.866 191.749 239.155C190.972 230.404 190.178 221.457 189.776 215.613C189.707 214.608 189.606 213.605 189.487 212.419V212.418C189.425 211.803 189.358 211.138 189.289 210.399C188.243 210.33 187.247 210.28 186.285 210.231C184.29 210.13 182.443 210.037 180.613 209.798C171.292 208.583 165.931 202.138 166.048 192.612C166.065 191.147 166.255 189.764 166.639 188.468C166.433 188.521 166.236 188.538 166.061 188.506C165.046 188.317 163.959 187.66 163.222 186.871C162.191 185.767 161.139 184.679 160.086 183.59C157.059 180.461 154.027 177.326 151.482 173.808C143.642 162.969 145.743 150.351 156.305 142.408C157.943 141.175 159.666 139.889 161.572 139.253C164.579 138.25 164.673 137.843 165.162 135.731V135.731L165.162 135.731L165.162 135.73C165.229 135.438 165.304 135.114 165.396 134.751C166.356 130.93 168.209 127.389 170.026 123.915L170.026 123.914L170.033 123.9C170.158 123.663 170.282 123.425 170.406 123.188C173.02 118.177 176.996 114.167 181.903 111.677C185.435 109.885 189.347 109.152 193.183 108.433V108.433C193.591 108.357 193.997 108.281 194.403 108.203C197.268 107.657 200.179 107.457 203.089 107.502ZM249.288 141.133C251.364 139.675 253.358 138.039 255.271 136.246C257.746 133.927 260.105 131.471 262.463 129.016C263.505 127.933 264.546 126.849 265.597 125.777C265.88 125.489 266.151 125.18 266.421 124.872C267.031 124.176 267.642 123.481 268.385 123.02C268.986 122.647 270.16 122.835 270.838 123.226C271.233 123.454 271.348 124.615 271.239 125.294C271.124 126.007 270.702 126.751 270.225 127.301C265.06 133.26 259.69 139.175 253.404 143.844C254.531 144.923 255.679 146.068 256.132 146.753C269.323 166.722 276.133 188.365 271.566 212.899C271.46 213.467 271.309 214.025 271.159 214.582V214.583C271.007 215.141 270.857 215.7 270.751 216.268C270.033 220.119 267.909 222.204 264.168 223.031C251.891 225.743 239.574 228.017 226.983 228.176C225.776 228.189 224.567 228.186 223.154 228.182C222.432 228.181 221.659 228.179 220.804 228.179C221.098 229.509 221.385 230.788 221.665 232.031L221.666 232.034L221.667 232.038C222.311 234.907 222.912 237.583 223.469 240.27C223.762 241.675 226.861 262.31 225.673 262.569C223.8 262.98 221.71 263.137 221.621 260.601C221.521 257.788 219.388 240.971 218.775 238.193C218.615 237.465 217.448 236.57 216.045 235.493C214.943 234.646 213.695 233.689 212.675 232.614C211.005 230.853 209.626 228.716 208.451 226.55C207.919 225.569 206.981 223.121 207.395 222.093C207.607 221.563 209.899 222.01 210.967 222.218L210.975 222.22C211.044 222.234 211.107 222.246 211.165 222.257C220.882 224.121 230.625 223.964 240.343 222.553C245.024 221.873 249.682 221.018 254.341 220.162H254.342C256.938 219.685 259.534 219.208 262.136 218.762C264.839 218.298 266.174 216.733 266.771 213.901C269.161 202.564 268.801 192.146 266.16 180.11C263.518 168.072 256.617 156.197 249.528 146.753C249.48 146.689 249.432 146.626 249.387 146.564C241.481 151.371 232.232 153.746 223.162 154.353C223.003 154.364 222.845 154.373 222.686 154.381C221.059 154.461 219.47 154.394 217.839 154.237L217.757 154.229C215.664 154.028 210.681 153.548 210.796 150.448C210.86 148.702 212.218 148.781 213.549 148.859V148.859C213.781 148.872 214.011 148.886 214.235 148.889C215.457 148.91 216.681 148.948 217.906 148.987H217.907C221.839 149.109 225.78 149.232 229.657 148.788C236.515 148.001 242.732 145.534 248.353 141.775C248.594 141.456 248.926 141.238 249.288 141.133ZM257.594 146.976C257.139 146.175 257.354 145.085 258.106 144.587C258.202 144.523 258.287 144.488 258.373 144.486C269.059 144.203 276.18 137.215 283.207 130.035C283.52 129.715 283.827 129.31 284.14 128.897C285.188 127.514 286.303 126.041 287.931 127.405C290.181 129.291 288.204 131.327 286.794 132.779C286.681 132.897 286.57 133.011 286.465 133.12C279.82 140.109 272.965 146.84 263.143 148.636C260.885 149.048 258.836 149.162 257.594 146.976Z" fill="black"/>
<path fill-rule="evenodd" clip-rule="evenodd" d="M183.261 256.277L154.789 260.658L110.915 282.918L92.6083 308.442L76.672 348.451L65.0437 393.335L57.8555 418.657L60.2989 443.425L66.1131 462.087L90.2664 474.024H135.287L169.458 472.065L178.91 478.342L194.36 485.952L228.208 491.81H274.507L327.396 475.241L329.567 463.575L366.601 440.511L426.704 398.312L422.897 383.384L485.97 361.771L489.474 354.682L484.989 352.035L485.97 345.362L479.044 342.577L476.757 333.603L442.634 344.159L447.774 331.799L444.717 328.507L410.421 353.833L396.837 345.362L350.011 360.556L345.698 352.424L334.935 319.104L316.013 287.068L290.977 265.085L264.464 257.641L224.232 253.348L219.305 251.527C219.305 251.527 196.256 250.567 189.758 252.462C183.261 254.356 183.261 256.277 183.261 256.277Z" fill="white"/>
<path fill-rule="evenodd" clip-rule="evenodd" d="M241.377 442.556L237.31 442.62C222.888 442.62 208.466 442.62 193.88 442.621L193.517 448.063C196.347 448.484 199.137 448.901 201.898 449.313C207.687 450.176 213.355 451.021 219.023 451.861C220.566 452.089 222.107 452.332 223.648 452.575H223.649C227.386 453.162 231.122 453.75 234.877 454.137C245.79 455.264 255.618 451.882 264.659 445.666C265.397 445.158 266.062 444.532 266.898 443.745C267.343 443.325 267.837 442.86 268.417 442.342L265.921 442.354L264.506 442.361C257.98 442.392 251.981 442.421 245.845 442.451C244.968 445.494 243.403 448.084 240.327 448.242C235.03 448.514 229.704 448.449 224.404 448.209C223.136 448.152 222.1 447.618 221.831 446.47C221.499 445.05 222.725 443.741 224.117 443.852L224.331 443.869L224.333 443.87C226.084 444.011 227.893 444.156 229.702 444.24C230.157 444.26 230.809 444.34 231.576 444.432C235.007 444.848 240.733 445.541 241.377 442.556ZM484.386 347.988C484.379 347.216 483.912 346.507 483.233 346.211C480.904 345.196 478.511 345.76 476.164 346.312H476.163C476.015 346.347 475.867 346.382 475.72 346.416C473.737 346.877 471.764 347.387 469.792 347.897C466.93 348.637 464.069 349.377 461.179 349.968C460.024 350.203 457.808 349.561 457.529 348.766C456.746 346.527 458.701 345.998 460.352 345.575C462.906 344.922 465.455 344.248 467.995 343.535C469.645 343.071 471.309 342.671 472.974 342.271H472.976L473.341 342.182C475.009 341.781 476.22 341.11 476.476 339.319C476.617 338.326 475.802 337.47 474.851 337.579L474.614 337.607C473.364 337.747 472.165 337.882 471.056 338.286C465.475 340.317 459.906 342.386 454.338 344.455L454.336 344.456C448.814 346.508 443.292 348.561 437.76 350.574L437.728 350.586C435.904 351.236 434.148 349.391 434.799 347.49C434.902 347.187 435.037 346.913 435.223 346.68C436.526 345.045 437.95 343.517 439.374 341.989C440.529 340.748 441.685 339.509 442.776 338.212L442.893 338.073C444.233 336.483 445.69 334.756 444.97 331.371C438.625 335.371 432.988 340.159 427.393 344.912C421.154 350.211 414.965 355.468 407.901 359.543C411.905 368.412 415.653 376.713 419.258 384.696C423.066 383.227 426.821 381.762 430.541 380.311L430.545 380.309H430.546C439.165 376.946 447.601 373.654 456.1 370.546C461.891 368.429 467.768 366.574 473.646 364.721L473.649 364.719C476.07 363.955 478.491 363.192 480.907 362.409C483.157 361.681 485.191 360.757 486.235 358.269C486.678 357.211 485.772 356.066 484.685 356.265L484.206 356.353C482.516 356.661 480.975 356.942 479.46 357.334C476.526 358.09 473.602 358.891 470.679 359.69L470.675 359.691C468.248 360.356 465.821 361.02 463.387 361.659C463.255 361.694 463.122 361.73 462.989 361.766C462.514 361.896 462.033 362.027 461.548 362.109C459.281 362.489 458.301 359.224 460.358 358.156C461.272 357.682 462.17 357.264 463.104 356.984C468.773 355.282 474.474 353.645 480.238 352.361C482.961 351.756 484.408 350.603 484.386 347.988ZM311.313 479.949C312.721 479.355 314.124 478.762 315.522 478.171L315.549 478.161C318.253 477.018 320.943 475.881 323.636 474.748C325.819 473.827 326.577 472.239 326.328 469.727C325.7 463.404 325.234 457.063 324.768 450.724L324.68 449.521C324.424 446.035 323.951 443.005 320.854 440.544C317.415 437.815 317.884 435.798 321.533 432.922C321.807 432.705 322.022 432.409 322.286 432.044C322.425 431.853 322.577 431.642 322.76 431.413C322.537 430.289 322.313 429.16 322.089 428.03C321.056 422.817 320.011 417.543 318.948 412.273C318.837 411.728 316.75 405.303 316.887 409.848C316.655 411.353 316.062 412.813 315.491 414.219C314.261 417.249 313.13 420.039 315.897 422.532C314.858 424.464 314.663 426.584 314.478 428.6C314.376 429.715 314.277 430.798 314.039 431.799C312.859 436.776 310.161 438.958 305.489 439.081H305.463C302.906 439.15 300.496 439.214 298.851 442.145C298.354 443.03 297.161 443.485 295.902 443.964C295.312 444.189 294.707 444.418 294.155 444.702C293.51 443.302 293.049 442.302 292.615 441.362L292.251 440.572L288.168 440.939C283.944 441.319 279.884 441.686 276.161 442.021C275.012 443.259 274.136 444.786 273.274 446.284C271.159 449.967 269.143 453.477 263.44 452.089C263.103 452.008 262.669 452.289 262.266 452.55C262.152 452.624 262.041 452.695 261.936 452.757C250.011 459.737 237.219 460.072 224.284 457.553C217.279 456.188 210.943 457.002 204.33 457.852L203.655 457.938C200.21 458.38 200.295 461.124 200.37 463.483C200.383 463.903 200.395 464.311 200.388 464.692C200.37 465.64 200.255 466.594 200.141 467.545C199.807 470.336 199.474 473.115 201.552 475.708C201.863 476.097 201.698 476.908 201.531 477.718C201.454 478.093 201.377 478.467 201.348 478.799C200.998 478.723 200.626 478.677 200.255 478.631C199.418 478.528 198.581 478.426 197.996 477.967C197.229 477.367 196.671 476.474 196.126 475.606C195.896 475.238 195.668 474.875 195.429 474.54C194.631 474.731 193.858 474.913 193.101 475.089L193.092 475.091C191.397 475.489 189.788 475.866 188.189 476.283C186.539 476.713 184.899 477.181 183.26 477.65H183.259C182.533 477.857 181.807 478.065 181.08 478.269C182.801 480.082 184.595 480.937 186.442 481.634C187.838 482.158 189.263 482.597 190.277 482.909C190.629 483.018 190.932 483.111 191.166 483.187C193.792 481.997 195.485 481.229 197.177 480.462C197.502 481.863 197.827 483.265 198.262 485.141L198.393 485.709C234.134 493.458 269.749 492.808 306.5 481.797C305.875 481.199 305.338 480.717 304.873 480.301C303.978 479.499 303.353 478.938 302.9 478.251C302.36 477.43 301.84 476.005 302.176 475.299C302.547 474.515 303.954 473.76 304.812 473.865C305.966 474.007 307.205 474.785 308.081 475.652C308.892 476.453 309.553 477.419 310.276 478.472C310.603 478.949 310.942 479.444 311.313 479.949ZM326.373 339.727C331.414 342.115 331.824 344.008 327.795 346.854C325.823 348.247 325.111 349.747 324.902 351.943C324.802 353.005 324.665 354.065 324.529 355.123V355.125V355.126C324.37 356.368 324.211 357.609 324.108 358.856C324.089 359.088 324.066 359.318 324.044 359.545C323.852 361.495 323.676 363.278 325.809 364.989C327.903 366.667 327.458 371.009 325.243 372.724C320.108 376.701 320.62 382.492 321.072 387.587C321.12 388.133 321.168 388.67 321.207 389.196C321.545 393.636 323.082 397.977 324.619 402.317V402.318C325.269 404.151 325.918 405.984 326.475 407.825C327.538 411.326 328.611 414.825 329.682 418.323L329.684 418.33C331.542 424.396 333.399 430.461 335.214 436.54C336.228 439.939 337.158 443.362 338.095 446.818L338.097 446.826C338.521 448.384 338.945 449.949 339.38 451.521C342.127 449.909 343.385 449.17 344.579 449.271C345.586 449.356 346.549 450.041 348.323 451.304C348.44 450.417 348.548 449.554 348.653 448.71L348.654 448.709C348.919 446.594 349.169 444.598 349.502 442.618C349.646 441.762 350.132 440.4 350.637 440.305C351.547 440.135 352.812 440.468 353.524 441.096C354.347 441.821 355.017 442.736 355.757 443.746L355.758 443.748C356.088 444.198 356.432 444.668 356.81 445.149C364.156 440.211 371.141 435.517 377.494 431.249L379.128 430.151C379.188 429.235 379.167 428.348 379.149 427.543C379.111 425.993 379.082 424.747 379.661 424.172C380.397 423.441 380.896 422.421 381.395 421.399C382.379 419.388 383.369 417.366 386.181 417.497C387.591 419.512 386.792 421.101 385.941 422.793C385.36 423.947 384.756 425.149 384.813 426.566C385.943 425.802 387.039 425.072 388.106 424.36C390.861 422.522 393.43 420.809 395.921 418.978C396.846 418.298 397.583 417.021 397.938 415.861C399.194 411.754 401.531 409.828 405.436 410.024C405.773 410.041 406.139 410.107 406.503 410.172C407.27 410.31 408.035 410.448 408.535 410.128C411.777 408.061 414.944 405.865 418.193 403.612H418.194L418.199 403.609C419.303 402.843 420.418 402.07 421.547 401.294L407.183 369.135L397.444 347.332C395.7 347.89 394.019 348.436 392.382 348.967L392.381 348.968C388.613 350.192 385.077 351.341 381.515 352.391C378.644 353.236 375.934 354.119 375.1 357.371C374.421 357.262 373.762 357.09 373.131 356.926C371.836 356.59 370.653 356.283 369.641 356.591C365.164 357.956 360.75 359.541 356.189 361.177C354.485 361.79 352.76 362.408 351.005 363.026C351.261 364.65 351.516 366.239 351.767 367.802L351.768 367.808C352.405 371.782 353.015 375.591 353.566 379.409C353.581 379.517 353.598 379.626 353.614 379.738C353.858 381.36 354.161 383.369 352.143 383.808C350.062 384.261 349.547 382.244 349.271 380.447C349.035 378.921 348.786 377.395 348.513 375.876C348.114 373.655 347.718 371.433 347.322 369.211C346.092 362.314 344.863 355.418 343.551 348.539C343.24 346.914 342.722 345.332 342.174 343.655C341.912 342.853 341.643 342.03 341.386 341.17C337.363 342.238 334.64 340.296 332.222 337.838C330.535 336.123 330.56 333.039 332.16 331.581C333.961 329.938 335.505 330.594 336.85 332.408C336.969 332.568 337.232 332.609 337.605 332.669C337.816 332.702 338.062 332.741 338.336 332.811C336.267 326.195 334.198 320.159 329.506 314.576C328.408 323.386 327.413 331.374 326.373 339.727ZM135.28 304.167C135.694 298.388 136.068 296.661 138.17 296.684C139.405 296.697 140.43 297.836 140.297 299.124C140.271 299.387 140.267 299.645 140.302 299.899C140.342 300.175 140.378 300.477 140.415 300.79C140.589 302.262 140.79 303.97 141.537 304.359C142.877 305.055 146.206 304.775 148.091 304.616C148.223 304.604 148.348 304.594 148.465 304.584C148.655 304.568 148.503 303.929 148.346 303.263C148.178 302.553 148.003 301.813 148.225 301.762C149.498 301.474 151.247 302.338 151.687 302.918C153.394 305.173 155.603 305.247 157.823 305.322C158.281 305.337 158.74 305.353 159.195 305.387C162.938 305.671 166.691 305.889 170.444 305.84C171.611 305.824 172.625 305.833 173.504 305.84H173.505C177.634 305.873 178.744 305.882 178.292 303.305C177.991 301.592 181.193 301.265 181.859 303.053C182.931 305.93 184.87 305.866 186.871 305.801C187.157 305.792 187.444 305.783 187.732 305.782C188.711 305.78 190.24 305.733 191.929 305.681C195.011 305.586 198.627 305.475 200.404 305.587C202.864 305.741 203.024 305.353 203.534 304.122C203.81 303.457 204.187 302.545 205.085 301.34C205.168 301.229 206.02 301.174 206.847 301.146C207.635 301.121 208.33 301.62 208.659 302.371C209.673 304.67 211.289 305.494 211.289 305.494C214.229 305.329 219.632 305.137 222.122 305.05C222.741 304.396 223.327 303.756 223.896 303.134V303.133C225.335 301.561 226.669 300.104 228.148 298.836C228.735 298.334 230.452 298.52 231.108 299.083C231.742 299.628 232.006 301.129 231.836 302.095C231.707 302.831 231.268 303.506 230.771 304.271C230.537 304.631 230.29 305.01 230.058 305.424C230.632 305.434 231.139 305.456 231.602 305.476C232.495 305.515 233.223 305.547 233.942 305.474C234.994 305.368 236.059 305.387 237.122 305.406C239.973 305.457 242.819 305.508 245.424 303.161C247.083 301.666 249.605 302.691 251.593 304.139C252.841 305.048 254.359 306.005 255.8 306.088C262.799 306.497 269.811 306.712 276.82 306.763C277.83 306.771 278.845 306.31 279.857 305.85C280.307 305.646 280.757 305.441 281.206 305.278C281.714 305.093 282.228 304.852 282.742 304.611C283.925 304.055 285.105 303.5 286.201 303.648C286.895 303.741 287.462 304.876 288.002 305.957C288.237 306.427 288.467 306.887 288.7 307.247L299.626 308.047C299.741 307.364 299.872 306.701 300 306.051V306.049C300.284 304.611 300.554 303.238 300.616 301.855C300.717 299.585 301.83 298.539 303.73 298.832C305.752 299.144 306.157 300.534 305.61 302.714C305.293 303.978 305.356 305.347 305.422 306.771C305.452 307.417 305.482 308.074 305.477 308.737C307.276 308.713 308.993 308.926 310.662 309.134C313.984 309.547 317.11 309.937 320.281 308.373C321.101 307.967 322.461 308.586 323.638 309.122C323.861 309.224 324.077 309.322 324.283 309.41C325.023 309.728 325.694 310.226 326.364 310.723V310.724C326.668 310.948 326.971 311.173 327.281 311.381L327.548 311.109L327.556 311.101C327.662 310.992 327.728 310.924 327.954 310.696C327.087 309.097 326.219 307.499 325.396 305.982L323.682 302.825C322.886 302.666 322.1 302.58 321.354 302.498C319.816 302.331 318.446 302.182 317.495 301.44C315.696 300.037 316.695 298.878 317.666 297.751C318.173 297.164 318.672 296.586 318.762 295.986C318.492 295.609 318.228 295.23 317.966 294.853C315.649 291.532 313.496 288.442 308.9 288.866C308.227 288.929 307.501 288.356 306.696 287.719C306.298 287.405 305.881 287.076 305.442 286.801L306.082 285.516L306.091 285.501C306.6 284.48 307.095 283.49 307.71 282.255L303.919 278.951L303.89 278.926C300.209 275.718 296.381 272.382 291.964 268.534C291.894 269.589 291.856 270.479 291.824 271.255C291.761 272.773 291.715 273.857 291.476 274.891C291.209 276.043 290.575 277.403 289.692 277.978C289.21 278.292 287.412 277.421 287.02 276.638C286.218 275.035 285.616 273.137 285.586 271.348C285.567 270.265 285.969 269.174 286.391 268.031C286.582 267.51 286.777 266.979 286.94 266.432C286.489 266.223 286.067 266.016 285.66 265.817L285.659 265.817V265.817C284.799 265.396 284.014 265.011 283.198 264.727C281.778 264.235 280.333 263.824 279.247 263.516C278.868 263.408 278.533 263.313 278.258 263.231C277.315 263.66 276.461 264.119 275.662 264.548C274.031 265.424 272.63 266.176 271.178 266.303C268.014 266.578 267.272 263.628 267.176 260.912C254.723 259.153 242.696 257.454 230.586 255.742L229.215 258.404L229.07 258.687C228.341 260.1 227.661 261.42 226.979 262.747C227.123 263.009 227.271 263.251 227.412 263.484C227.705 263.963 227.971 264.401 228.134 264.877C229.297 268.291 227.356 271.337 224.316 270.169C221.478 269.077 219.565 270.067 217.442 271.165C217.208 271.287 216.971 271.409 216.729 271.53C202.163 278.864 187.375 273.18 180.642 262.617C179.083 260.172 177.144 259.36 174.532 259.856C173.399 260.072 172.269 260.305 171.094 260.548L171.092 260.548C170.581 260.653 170.062 260.761 169.531 260.869C169.432 261.088 169.337 261.308 169.242 261.527C169.039 262 168.837 262.468 168.605 262.919C166.99 266.071 165.371 266.84 163.132 264.516C160.833 262.129 158.933 262.859 157.307 263.485C157.189 263.53 157.073 263.575 156.958 263.618C156.577 264.426 156.278 265.255 155.998 266.031V266.031C155.435 267.596 154.948 268.944 154.036 269.454C152.409 270.364 151.723 269.227 150.923 267.902C150.383 267.008 149.791 266.028 148.823 265.535C147.057 266.404 145.279 267.276 143.491 268.152C138.214 270.738 132.862 273.361 127.542 276.051C126.266 276.696 124.621 277.634 124.245 278.819C124.037 279.477 124.442 280.32 124.864 281.2C125.128 281.751 125.399 282.316 125.53 282.858C125.732 283.696 125.768 285.241 125.393 285.435C124.563 285.862 123.143 286.071 122.476 285.59C121.468 284.863 120.621 283.889 119.754 282.892C119.394 282.477 119.03 282.059 118.65 281.653C118.26 281.941 117.885 282.211 117.519 282.473C116.747 283.026 116.026 283.544 115.34 284.108C114.784 284.566 114.251 285.056 113.718 285.545C112.858 286.335 112 287.124 111.052 287.773C109.512 288.829 107.221 291.048 107.537 292.002C107.683 292.441 107.977 292.92 108.278 293.413C108.65 294.019 109.034 294.646 109.174 295.245C109.179 295.271 109.182 295.306 109.183 295.351C109.2 296.567 107.907 297.335 106.875 296.778C106.693 296.68 106.51 296.578 106.329 296.476C105.532 296.032 104.756 295.599 104.223 295.559C104.06 295.731 103.936 295.853 103.84 295.949C103.689 296.099 103.607 296.181 103.543 296.276C92.5686 312.341 85.6535 330.444 79.6068 348.963C79.2016 350.204 79.683 351.914 80.1146 353.281C81.7669 358.515 80.2913 361.988 75.2033 364.107L74.662 366.678L74.009 369.781C74.5889 370.653 75.5791 371.083 76.5164 371.491C78.0103 372.14 79.3661 372.73 78.6928 374.953C78.0662 377.022 76.4951 376.907 74.7473 376.781C73.8099 376.711 72.8208 376.64 71.8996 376.899C71.0994 380.288 70.2961 383.701 69.4887 387.131C67.5967 395.172 65.6823 403.304 63.7344 411.426C61.7866 419.547 60.6715 427.759 61.3326 436.134C62.1816 446.898 65.6854 456.336 73.7856 463.346C75.3201 462.543 76.9247 462.206 78.4907 461.876C80.6864 461.415 82.8048 460.97 84.5486 459.277C84.9183 458.918 85.8841 459.232 86.7839 459.524C87.1799 459.653 87.5638 459.778 87.8787 459.839C89.336 466.775 87.3221 466.983 81.0662 467.63L80.7554 467.662C84.4531 471.11 100.267 473.723 105.483 471.961C105.15 471.654 104.789 471.368 104.43 471.085C103.614 470.442 102.818 469.814 102.454 468.98C102.221 468.445 102.333 467.744 102.51 467.013C102.74 466.068 103.634 465.463 104.544 465.668C105.115 465.797 105.674 465.952 106.186 466.208C106.566 466.399 106.923 466.815 107.257 467.205C107.661 467.676 108.033 468.111 108.375 468.061C112.059 467.521 113.309 469.704 113.59 473.118C122.165 474.02 132.882 473.098 141.12 472.166C141.454 472.129 141.439 471.601 141.417 470.878C141.38 469.631 141.326 467.802 143.018 466.9C144.702 466.433 144.915 466.727 145.498 467.527C145.905 468.088 146.493 468.897 147.895 469.869C148.709 470.435 149.84 470.842 150.724 470.708C155.179 470.027 160.553 469.05 165.389 468.171L165.398 468.169C166.074 468.047 166.738 467.925 167.389 467.808C167.457 464.291 168.614 461.349 171.902 461.428C173.251 461.461 174.58 462.355 175.909 463.25C176.508 463.652 177.106 464.054 177.706 464.378C177.629 464.697 177.552 465.017 177.475 465.336C178.266 465.092 179.057 464.85 179.848 464.607C180.933 464.273 182.02 463.938 183.106 463.605C182.685 459.951 182.785 456.957 186.487 455.695C187.014 455.515 187.579 454.576 187.642 453.936C187.882 451.487 188.035 449.028 188.192 446.529C188.247 445.651 188.301 444.769 188.361 443.879C187.61 444.192 186.914 444.557 186.267 444.895C184.922 445.6 183.792 446.191 182.836 445.97C181.965 445.767 181.292 444.638 180.579 443.442C180.252 442.895 179.918 442.334 179.552 441.842C177.402 441.791 175.236 441.742 173.057 441.692H173.049C167.417 441.564 161.706 441.434 155.994 441.271C155.427 441.255 154.579 441.151 153.677 441.04C152.293 440.87 150.783 440.685 149.959 440.777C149.212 440.862 149.055 441.524 148.867 442.312C148.703 443.003 148.516 443.79 147.89 444.369C145.713 446.378 143.873 444.514 143.788 439.737C143.594 439.119 143.105 438.911 142.623 438.706C142.449 438.632 142.277 438.559 142.118 438.467C138.424 436.311 137.897 432.565 137.368 428.809L137.33 428.541C136.861 425.209 136.425 421.872 135.975 418.429V418.428L135.973 418.417C135.781 416.942 135.586 415.448 135.384 413.925C134.92 413.792 134.465 413.635 134.015 413.479C133.043 413.143 132.097 412.816 131.136 412.762C129.296 412.657 127.449 412.652 125.603 412.647C123.945 412.643 122.285 412.637 120.628 412.561C120.3 412.546 119.945 412.549 119.58 412.551C117.639 412.566 115.414 412.583 115.418 409.947C115.422 407.528 117.281 407.738 118.949 407.925C119.423 407.978 119.881 408.03 120.277 408.019C123.67 407.921 127.068 407.957 130.461 407.994H130.462C131.798 408.008 133.135 408.023 134.469 408.03C134.495 400.686 134.415 400.655 128.112 399.917C127.384 399.832 126.686 399.474 125.995 399.097C125.271 398.703 124.834 397.898 124.875 397.044C124.887 396.791 124.898 396.543 124.909 396.297C124.982 394.695 125.048 393.232 125.314 391.81C125.497 390.832 126.359 389.399 127.092 389.267C128.164 389.074 129.744 389.519 130.48 390.322C131.149 391.052 131.631 392.429 132.078 393.711C132.331 394.436 132.574 395.132 132.835 395.663C133.063 395.598 133.224 395.672 133.385 395.748C133.547 395.823 133.707 395.897 133.934 395.833C133.666 391.63 133.291 387.075 132.918 382.558C132.554 378.138 132.192 373.754 131.938 369.775C131.302 368.947 130.261 368.686 129.289 368.444C127.88 368.091 126.62 367.776 126.96 365.825C127.168 364.629 128.294 363.607 129.535 362.482V362.481C130.131 361.941 130.752 361.377 131.312 360.758C131.285 360.099 131.278 359.526 131.271 358.946C131.252 357.368 131.23 355.736 130.821 352.185C130.595 347.394 130.508 344.388 130.441 342.056C130.349 338.88 130.294 336.95 129.972 333.455C129.866 330.106 129.69 328.275 129.539 326.718C129.382 325.083 129.253 323.749 129.266 321.278C129.274 319.643 129.122 318.002 128.97 316.354C128.72 313.664 128.469 310.958 128.912 308.236C129.158 306.711 130.261 305.49 131.69 305.113L135.28 304.167ZM308.146 433.93C311.643 425.637 325.191 323.412 323.948 315.389C323.753 315.342 323.553 315.284 323.347 315.225C322.891 315.094 322.412 314.956 321.924 314.905C286.816 311.222 251.588 309.857 216.336 309.896C209.793 309.903 203.25 309.956 196.707 310.009H196.706C178.166 310.161 159.629 310.311 141.094 309.409C139.377 309.326 137.658 309.311 135.872 309.295H135.871C135.021 309.288 134.156 309.28 133.27 309.264C133.267 309.933 133.256 310.529 133.246 311.076V311.077C133.227 312.13 133.211 313.005 133.265 313.876C133.464 317.137 133.679 320.397 133.894 323.657V323.659L133.895 323.661C134.138 327.338 134.381 331.016 134.601 334.695C134.998 341.309 135.376 347.925 135.754 354.541V354.542C136.566 368.768 137.379 382.996 138.382 397.209C139.005 406.022 140.105 414.803 141.206 423.574C141.381 424.963 141.555 426.353 141.727 427.742C142.512 434.066 142.642 434.244 148.861 435.152C154.876 436.029 160.948 436.875 167.006 436.975C189.498 437.345 211.994 437.504 234.489 437.539C248.495 437.561 262.515 437.563 276.505 436.93C283.899 436.595 291.274 435.772 298.56 434.958L298.563 434.957C301.776 434.599 304.972 434.242 308.146 433.93ZM193.667 267.979C202.385 271.813 210.021 270.313 217.799 265.619C217.529 261.592 217.256 257.544 216.959 253.109C216.854 251.563 218.004 250.233 219.482 250.197C220.892 250.162 222.125 250.14 223.335 250.31C226.776 250.793 230.219 251.272 233.662 251.751L233.663 251.751C247.774 253.714 261.887 255.677 275.961 257.909C286.044 259.508 294.859 264.411 302.509 271.419C313.828 281.787 323.393 293.601 331.394 307.096C340.304 322.12 346.352 338.044 349.537 355.298C349.625 355.772 349.777 356.234 349.982 356.853C350.096 357.199 350.226 357.595 350.372 358.069C350.952 357.893 351.522 357.725 352.083 357.56H352.084C353.564 357.124 354.981 356.707 356.388 356.201C367.752 352.114 379.145 348.1 390.705 344.672C392.174 344.236 393.406 343.835 394.462 343.492C397.187 342.605 398.739 342.099 400.155 342.372C402.027 342.732 403.66 344.45 407.452 348.438C407.669 348.666 407.893 348.901 408.124 349.145C408.631 349.676 409.124 350.22 409.747 350.906C410.076 351.268 410.442 351.67 410.863 352.13C412.113 351.175 413.363 350.234 414.61 349.297L414.611 349.296C417.39 347.204 420.148 345.129 422.828 342.948C424.728 341.401 426.577 339.785 428.425 338.169L428.426 338.168C430.69 336.189 432.953 334.209 435.309 332.359C437.641 330.529 440.311 329.121 442.955 327.801C444.867 326.849 446.979 326.831 448.606 328.607C450.317 330.476 450.504 332.757 449.62 335.088C449.171 336.273 448.639 337.424 447.978 338.855C447.643 339.583 447.274 340.381 446.865 341.295C447.93 340.993 448.935 340.722 449.895 340.462C451.915 339.916 453.742 339.421 455.535 338.814C458.167 337.923 460.779 336.967 463.393 336.011C465.179 335.357 466.965 334.704 468.759 334.071C469.852 333.685 470.964 333.361 472.095 333.13C478.476 331.829 481.663 334.06 480.536 340.401C480.911 340.549 481.479 340.686 482.098 340.834C483.189 341.094 484.437 341.392 485.072 341.863C486.367 342.823 487.923 344.536 488.141 345.883C488.426 347.652 487.14 351.515 487.14 351.515C489.841 352.521 490.159 353.05 490.863 354.225C490.933 354.342 491.006 354.464 491.085 354.593C491.522 355.303 491.792 356.134 491.727 356.978C491.681 357.579 491.495 358 491.284 358.474C491.196 358.675 491.102 358.884 491.014 359.121C489.312 363.658 485.756 365.679 481.496 367.147C467.487 371.975 453.532 376.964 439.575 381.952L439.572 381.953C437.133 382.825 434.694 383.698 432.253 384.568C431.087 384.985 429.965 385.531 428.771 386.112C428.193 386.393 427.599 386.683 426.975 386.969C427.247 388.033 427.507 389.089 427.765 390.137L427.767 390.145C428.38 392.635 428.983 395.083 429.706 397.491C430.316 399.524 429.682 400.877 428.207 401.992C427.895 402.227 427.583 402.464 427.272 402.699V402.7C425.338 404.164 423.403 405.63 421.404 406.987C416.017 410.642 410.634 414.301 405.25 417.961C387.096 430.302 368.941 442.642 350.676 454.799C346.342 457.684 341.737 460.117 337.074 462.582C334.918 463.721 332.748 464.868 330.588 466.068C330.584 466.646 330.626 467.26 330.669 467.886V467.887C330.768 469.322 330.872 470.824 330.429 472.122C329.279 475.493 327.559 478.228 323.832 479.869C301.597 489.657 278.464 494.389 254.415 495.198C232.691 495.928 211.182 494.761 190.397 487.73C183.402 485.362 176.64 482.235 169.881 479.109H169.88C167.354 477.941 164.83 476.774 162.293 475.646C160.218 474.723 158.36 474.182 155.982 474.603C139.564 477.496 122.997 478.95 106.385 477.739C98.3512 477.154 90.1881 475.811 82.4941 473.382C67.2209 468.558 57.4714 453.796 56.9362 435.791C56.5777 423.772 58.1396 411.961 61.3001 400.349C63.3556 392.801 65.3065 385.221 67.2585 377.641V377.64C69.2957 369.729 71.3319 361.816 73.487 353.94C77.9758 337.533 84.3891 321.934 91.8963 306.783C99.1942 292.057 109.77 280.973 123.579 272.942C137.757 264.694 152.687 258.951 168.684 256.086C172.157 255.464 175.566 254.447 178.975 253.43C180.521 252.969 182.067 252.507 183.619 252.083C184.084 251.955 184.547 251.811 185.009 251.667C185.965 251.369 186.92 251.072 187.897 250.922C190.944 250.453 191.888 251.189 192.283 254.442C192.651 257.489 192.946 260.545 193.249 263.711V263.711C193.384 265.11 193.52 266.529 193.667 267.979ZM238.743 259.729C236.968 258.642 235.454 259.686 235.556 261.811C235.585 262.271 235.58 262.749 235.575 263.227V263.227V263.227V263.227V263.227V263.227V263.228V263.228V263.228C235.563 264.328 235.551 265.429 235.965 266.309C236.505 267.453 237.969 268.744 239.085 268.805C240.501 268.883 242.406 268.159 243.269 267.061C243.825 266.354 243.249 264.093 242.526 263.004C241.623 261.642 240.15 260.591 238.743 259.729ZM259.322 272.487V272.488C258.526 272.876 257.749 273.255 257.488 273.015C255.752 271.425 254.095 271.768 252.248 272.152C251.967 272.21 251.68 272.269 251.39 272.323C250.126 272.555 247.974 271.634 247.338 270.526C246.247 268.63 248.129 267.474 249.561 266.634C252.877 264.688 257.844 266.211 259.648 269.671C259.809 269.978 259.907 270.32 260.059 270.847C260.147 271.157 260.255 271.53 260.404 271.998C260.073 272.121 259.696 272.305 259.322 272.487ZM269.204 276.843C273.739 277.194 276.384 279.426 276.037 282.605C275.803 284.746 273.909 286.363 271.806 286.22C268.571 286.001 265.104 282.532 265.213 279.623C265.288 277.616 266.678 276.647 269.204 276.843ZM244.893 349.748C252.288 349.403 259.932 341.663 260.275 334.174C260.452 330.334 258.769 328.777 255.704 330.632C251.639 333.096 247.778 336.045 244.22 339.259C242.696 340.636 241.805 343.11 241.257 345.262C240.618 347.783 242.561 349.856 244.893 349.748ZM254.986 336.331C251.116 338.403 248.588 340.171 246.547 344.182C250.851 342.95 253.327 341.117 254.986 336.331ZM225.473 378.891C224.974 377.832 224.606 377.053 224.017 376.569C221.164 374.221 221.192 371.336 222.207 368.216C222.444 367.49 222.671 366.756 222.899 366.022C223.699 363.441 224.503 360.847 225.721 358.5C228.666 352.83 233.71 350.574 239.664 350.972C246.244 351.413 250.41 357.494 247.523 363.636C243.975 371.174 243.573 377.634 247.333 385.38C250.59 392.093 248.007 399.713 243.163 403.811C237.288 408.783 228.585 409.573 222.37 405.7C214.76 400.958 212.65 391.347 217.729 383.754C218.44 382.691 220.016 382.105 221.305 381.666C222.19 381.365 223.137 381.262 224.363 381.128C224.984 381.06 225.676 380.985 226.468 380.872C226.058 380.13 225.747 379.469 225.473 378.891ZM230.224 403.495C240.571 404.135 246.516 395.783 242.959 385.593L242.908 385.448C242.673 384.769 242.432 384.073 242.063 383.476C238.473 377.689 238.373 371.915 241.994 366.096C242.27 365.653 242.457 365.149 242.643 364.644C242.725 364.422 242.806 364.202 242.896 363.987L242.91 363.952C243.8 361.796 244.731 359.544 242.963 357.47C241.202 355.41 238.918 355.209 236.36 355.754C231.816 356.722 229.632 359.993 228.005 364.136C226.482 368.012 225.574 371.304 228.594 375.299C232.319 380.224 230.371 384.604 224.636 386.009C224.278 386.095 223.906 386.171 223.541 386.166C221.499 386.143 220.656 387.52 220.127 389.307C217.497 398.213 223.424 402.656 230.224 403.495ZM120.752 376.231C117.426 383.489 112.65 382.101 107.842 380.702C107.191 380.512 106.539 380.323 105.891 380.154C105.523 380.059 105.205 379.809 105.032 379.458C104.27 377.916 104.953 376.409 106.543 376.102C110.27 375.385 114.077 375.103 117.873 374.822C118.358 374.787 118.842 374.75 119.327 374.713C119.625 374.691 119.958 375.157 120.29 375.626C120.445 375.843 120.6 376.062 120.752 376.231ZM106.491 422.335C106.422 422.428 106.344 422.574 106.253 422.744C105.995 423.224 105.639 423.888 105.143 424.035C104.23 424.306 102.862 424.21 102.157 423.638C100.897 422.617 99.7344 421.26 99.0113 419.784C98.4193 418.577 97.9491 416.655 98.4772 415.669C99.0276 414.644 100.88 413.81 102.085 413.911C103.291 414.012 104.911 415.111 105.433 416.24C105.953 417.361 106.085 418.679 106.235 420.174C106.303 420.857 106.376 421.579 106.491 422.335ZM72.4805 439.778C72.1485 440.091 71.8174 440.48 71.4853 440.87C70.7328 441.753 69.9812 442.636 69.2348 442.63C68.01 442.62 65.7046 440.867 65.7717 440.041C66.0235 436.954 66.964 433.905 67.8881 430.926C68.0262 430.486 69.5973 430.126 70.2636 430.391C70.9196 430.655 71.6305 431.733 71.6823 432.502C71.791 434.093 71.7341 435.695 71.6782 437.296C71.6559 437.929 71.6336 438.56 71.6214 439.19L72.051 439.484L72.052 439.485L72.054 439.486L72.4805 439.778ZM163.371 456.936L162.817 456.827L162.73 456.81L162.669 456.797C161.728 456.611 160.356 456.338 158.846 456.038C158.904 455.585 158.921 455.148 158.935 454.746C158.966 453.965 158.99 453.319 159.308 452.957C160.959 451.076 162.809 449.375 164.669 447.714C165.185 447.253 166.121 446.794 166.662 446.981C167.781 447.367 169.254 447.959 169.655 448.902C170.003 449.72 169.362 451.407 168.653 452.231C167.744 453.287 166.665 454.18 165.351 455.268L165.35 455.269C164.742 455.772 164.085 456.316 163.371 456.936ZM254.601 300.052C254.375 300.036 254.143 300.033 253.911 300.031C253.405 300.025 252.897 300.02 252.434 299.866C250.452 299.206 249.989 297.246 251.601 295.996C253.055 294.867 254.675 293.909 256.337 293.154C258.19 292.312 260.042 292.596 261.091 294.612C262.236 296.812 260.964 298.39 259.244 299.287C258.296 299.782 257.214 299.991 256.131 300.202C255.65 300.295 255.17 300.388 254.702 300.507L254.656 300.298L254.648 300.261L254.601 300.052ZM88.9613 415.414C89.5371 413.579 87.8979 411.268 85.8516 411.299C85.7703 411.346 85.6403 411.395 85.49 411.451C85.0747 411.608 84.5039 411.823 84.3688 412.206C83.3269 415.156 82.359 418.153 81.6897 421.211C81.5841 421.699 83.078 423.071 83.9017 423.142C84.7344 423.213 86.0202 422.396 86.4619 421.581C87.51 419.651 88.296 417.533 88.9613 415.414ZM127.774 468.052C129.968 470.224 130.347 470.157 133.162 467.187C132.705 466.343 132.283 465.556 131.88 464.806L131.878 464.804L131.877 464.802L131.875 464.798L131.874 464.796L131.872 464.792C131.041 463.244 130.299 461.861 129.535 460.492C128.534 458.698 126.538 458.265 125.469 459.565C123.903 461.462 124.929 465.236 127.774 468.052ZM232.58 290.248V290.249C232.906 290.492 233.269 290.763 233.621 291.078C234.305 290.785 234.989 290.503 235.672 290.221C237.599 289.427 239.508 288.639 241.31 287.643C241.802 287.37 241.953 285.394 241.538 284.64C241.13 283.903 239.653 283.177 238.905 283.4C236.689 284.064 234.516 285.044 232.51 286.24C231.83 286.644 231.383 288.079 231.431 289.009C231.452 289.406 231.948 289.776 232.58 290.248ZM123.888 303.849C126.569 304.194 127.907 301.731 127.832 296.194C123.096 295.259 120.804 296.101 120.351 298.751C119.993 300.848 121.897 303.594 123.888 303.849ZM110.132 312.551C110.027 312.362 109.94 312.205 109.885 312.087C110.971 309.208 110.388 307.879 108.698 307.401C106.748 306.847 105.586 308.08 104.948 309.892C104.016 312.54 105.449 316.206 108.172 317.768C108.853 318.16 110.323 318.323 110.597 317.939C111.125 317.201 111.356 315.924 111.161 314.999C110.958 314.036 110.46 313.14 110.132 312.551ZM90.1942 362.175C87.5252 362.395 86.9545 364.161 87.8898 366.594C87.7822 366.863 87.638 367.137 87.4948 367.411C87.1728 368.024 86.856 368.629 86.9646 369.131C87.1606 370.042 87.9568 371.247 88.7327 371.492C90.576 372.073 93.2795 369.453 93.5973 367.107C93.9183 364.737 92.1857 362.009 90.1942 362.175ZM86.8854 381.705C87.0926 381.552 87.2916 381.408 87.4816 381.28C87.4155 380.951 87.3759 380.656 87.3434 380.412C87.2886 380 87.2531 379.733 87.1444 379.696C86.6589 379.523 86.1654 379.311 85.6698 379.099C84.3109 378.517 82.9369 377.927 81.6776 378.121C80.2446 378.34 78.8685 380.156 77.8681 381.575C77.5584 382.014 78.3607 383.7 79.0472 384.377C79.3956 384.723 80.4193 384.42 81.1992 384.189H81.2013L81.3373 384.149L81.4399 384.119C82.7277 383.749 84.0083 383.312 85.229 382.751C85.8333 382.474 86.3847 382.071 86.8854 381.705ZM274.225 298.803C274.703 298.922 275.27 299.064 275.963 299.262C276.058 299.199 276.233 299.118 276.447 299.02C277.129 298.708 278.202 298.217 278.342 297.518C278.562 296.426 277.703 294.429 276.764 293.907C275.46 293.183 273.563 293.094 272.083 293.459C271.787 293.531 271.524 293.745 271.276 294.032C270.257 295.219 270.592 297.074 271.88 297.928C272.005 298.01 272.132 298.088 272.261 298.159C272.772 298.44 273.352 298.585 274.225 298.803ZM147.182 283.697C147.778 282.381 147.26 280.796 146.03 280.117C145.916 280.053 145.801 279.988 145.687 279.924L145.686 279.923C144.013 278.981 142.472 278.112 140.803 280.593C139.771 282.127 141.454 285.509 143.272 286.229C144.845 286.853 146.06 286.172 147.182 283.697ZM103.759 407.887C105.175 408.892 107.123 408.174 107.69 406.483C107.868 405.955 108.036 405.443 108.198 404.927C108.856 402.826 108.004 401.504 106.056 401.121C104.202 400.756 102.853 401.659 102.239 403.571C101.667 405.353 102.031 406.664 103.759 407.887ZM190.564 278.553C190.162 280.299 192.68 283.807 195.124 284.273C195.262 284.106 195.445 283.925 195.644 283.729C196.158 283.222 196.774 282.614 196.97 281.883C197.11 281.365 196.928 280.766 196.742 280.155C196.587 279.647 196.429 279.131 196.45 278.641C196.524 276.947 196.437 275.399 194.486 275.318C192.459 275.234 191.045 276.457 190.564 278.553ZM123.696 424.116C124.825 426.262 126.48 426.989 128.705 425.423C128.594 424.724 128.498 424.031 128.404 423.344C128.189 421.781 127.978 420.254 127.611 418.768C127.144 416.882 124.922 416.599 123.713 418.174C122.215 420.127 122.691 422.206 123.696 424.116ZM116.253 431.457C115.357 433.721 114.482 435.933 113.513 438.378C115.003 440.624 116.533 440.244 117.852 438.942C119.494 437.322 120.568 435.302 119.675 432.831C119.06 431.124 117.844 430.602 116.253 431.457ZM114.828 345.568C115.139 345.142 115.449 344.715 115.777 344.349C115.865 341.557 115.411 339.777 113.023 339.605C110.888 339.452 109.802 340.985 109.636 343.206C109.451 345.667 110.896 348.28 112.534 347.767C113.427 347.487 114.127 346.528 114.828 345.568ZM210.646 277.982C209.19 278.551 208.645 280.433 209.542 281.763C209.9 282.294 210.241 282.692 210.667 282.918C211.781 283.51 213.481 283.736 214.572 283.249C215.406 282.877 216.362 280.865 216.062 280.092C215.614 278.932 214.162 277.56 213.053 277.474C212.291 277.416 211.509 277.647 210.646 277.982ZM85.4301 349.288C86.1248 351.309 87.9294 351.83 90.316 350.385C90.2297 349.779 90.1556 349.192 90.0835 348.62C89.9128 347.257 89.7534 345.986 89.4599 344.749C89.2751 343.973 88.5571 342.781 88.0554 342.766C87.1413 342.739 85.5245 343.305 85.4108 343.882C85.0696 345.631 84.8736 347.668 85.4301 349.288ZM100.744 313.019C98.5828 312.869 98.0039 314.401 97.5997 316.797C97.8241 317.244 98.0161 317.746 98.2091 318.249C98.6457 319.386 99.0814 320.522 99.8787 321.006C101.24 321.834 103.678 318.723 103.684 316.436C103.69 314.377 102.553 313.146 100.744 313.019ZM93.4785 448.047C94.3235 447.668 94.7622 446.678 94.5499 445.74L94.488 445.467L94.3885 445.021C94.0564 443.537 93.7486 442.16 93.3445 440.817C92.8407 439.139 91.5784 438.972 90.3313 439.84C88.8038 440.902 88.5479 443.932 89.8225 446.098C90.7334 447.646 91.8404 448.782 93.4785 448.047ZM121.135 355.826C119.749 357.137 118.351 358.461 118.535 360.833C122.201 361.526 125.35 359.797 125.595 356.91C125.666 356.085 125.221 355.029 124.678 354.395C124.328 353.987 122.96 353.827 122.741 354.121C122.284 354.736 121.71 355.281 121.135 355.826ZM103.348 342.751C102.621 340.502 101.293 339.741 99.0855 341.291C99.053 341.773 99.0093 342.261 98.9636 342.753V342.754C98.861 343.886 98.7554 345.041 98.793 346.192C98.855 348.046 100.428 349.131 101.701 348.248C103.599 346.93 104.062 344.962 103.348 342.751ZM79.0036 401.582C80.5411 400.931 80.7148 398.698 79.3976 397.642C78.1881 396.672 77.1065 395.833 75.9751 395.075C75.8472 394.989 74.2913 396.45 74.1776 397.305C73.9318 399.142 76.5662 401.824 78.4836 401.713C78.6562 401.702 78.8269 401.657 79.0036 401.582ZM150.947 463.785C151.944 464.397 153.218 463.92 153.651 462.797C154.592 460.354 154.203 459.018 152.607 458.007C150.992 456.986 149.598 457.587 148.969 459.22C147.977 461.8 149.306 462.778 150.947 463.785ZM91.4464 392.312C91.0543 391.446 90.0489 391.086 89.2375 391.529C87.5202 392.467 87.6146 394.136 88.3397 395.788C88.8495 396.952 90.2754 398.523 91.1955 398.459C93.0875 398.325 93.0032 396.422 92.4954 394.882C92.205 394.001 91.8262 393.15 91.4464 392.312ZM113.083 394.443C113.322 394.031 113.571 393.603 113.837 393.157C113.65 392.767 113.495 392.336 113.344 391.915C113.025 391.021 112.724 390.177 112.164 389.898C110.354 388.996 109.482 390.722 109.217 392.201C108.938 393.768 109.11 395.453 109.312 397.055C109.346 397.328 110.933 397.789 111.098 397.573C111.811 396.636 112.409 395.604 113.083 394.443ZM128.335 283.284C127.898 285.05 128.105 286.112 129.242 287.298C130.243 288.343 131.987 287.845 132.33 286.408C132.886 284.073 132.515 283.048 130.848 282.123C129.847 281.567 128.617 282.135 128.335 283.284ZM156.003 277.929C156.757 277.173 156.797 275.92 156.096 275.113C155.581 274.52 155.17 274.087 154.68 273.925C153.422 273.513 150.716 276.958 151.032 278.759C151.169 279.536 152.856 280.791 153.022 280.665C154.044 279.876 154.975 278.96 156.003 277.929ZM137.394 457.305C138.809 456.634 139.084 454.663 137.93 453.575C137.355 453.032 136.879 452.671 136.361 452.586C134.104 452.216 133.098 454.165 132.871 456.138C132.791 456.821 134.177 458.411 134.667 458.316C135.533 458.147 136.365 457.793 137.394 457.305ZM218.518 291.265C216.611 292.135 216.284 294.892 218.081 295.986C219.175 296.652 220.308 296.393 221.528 295.226C222.187 294.595 222.792 292.787 222.457 292.369C221.798 291.546 220.38 290.807 219.426 290.973C219.116 291.026 218.813 291.129 218.518 291.265ZM113.517 364.925C112.708 363.739 111.049 363.621 110.107 364.694C109.568 365.31 109.193 365.832 109.146 366.386C109.048 367.526 109.848 369.307 110.77 369.856C112.145 370.673 114.756 368.579 114.483 366.922C114.376 366.267 114.016 365.658 113.517 364.925ZM93.3638 333.483L93.4003 333.455C94.1356 332.878 94.2036 331.747 93.5486 331.074L93.3607 330.881C92.4223 329.917 91.6982 329.173 90.8299 328.824C90.2967 328.608 88.2453 330.566 88.3682 330.862C88.6525 331.55 89.0242 332.197 89.4345 332.828C90.314 334.183 92.1095 334.469 93.3638 333.483ZM197.858 296.487L197.89 296.451C198.763 295.536 198.857 294.074 198.104 293.049C197.646 292.427 197.241 291.962 196.776 291.886C194.805 291.565 193.625 293.162 193.86 295.031C193.907 295.41 194.064 295.774 194.281 296.13C195.067 297.422 196.822 297.572 197.858 296.487ZM182.732 273.009C182.146 270.961 179.51 270.614 178.41 272.414C178.23 272.707 178.093 272.991 178.001 273.289C177.529 274.82 177.993 276.696 179.849 276.519C180.942 276.416 182.429 275.055 182.778 273.932C182.859 273.666 182.834 273.363 182.732 273.009ZM173.127 292.961C174.641 292.039 174.645 289.604 173.046 288.857C172.963 288.819 172.881 288.788 172.796 288.765C170.996 288.281 168.359 290.517 168.701 292.25C168.855 293.032 170.285 294.27 170.785 294.109C171.573 293.856 172.316 293.452 173.127 292.961ZM290.357 294.55L290.374 294.534L290.443 294.467C291.474 293.468 292.516 292.461 293.862 291.159C293.619 290.68 293.426 290.205 293.248 289.763L293.247 289.762C292.886 288.872 292.58 288.12 292.038 287.757C290.701 286.858 288.744 288.591 288.72 290.981C288.713 291.8 289.212 292.624 289.71 293.448C289.937 293.821 290.162 294.193 290.341 294.566L290.357 294.55ZM121.637 320.099C120.847 319.1 119.36 319.196 118.68 320.28C118.153 321.121 117.781 321.772 117.692 322.464C117.474 324.139 118.569 325.664 120.257 325.182C121.333 324.875 122.704 323.375 122.798 322.301C122.851 321.679 122.355 321.005 121.637 320.099ZM67.6718 408.706C68.1776 409.637 69.3861 409.83 70.1336 409.097C71.1969 408.053 72.0235 407.223 72.6867 406.269C72.8096 406.092 70.9277 403.716 70.4535 403.881C69.0967 404.35 67.746 405.42 66.9061 406.642C66.708 406.932 67.1132 407.677 67.6678 408.698L67.6718 408.706ZM155.636 295.12C155.704 295.539 155.772 295.958 155.8 296.36L155.853 296.365C156.338 296.418 156.823 296.472 157.309 296.524C157.522 296.344 157.756 296.178 157.991 296.012C158.517 295.64 159.042 295.268 159.319 294.75C159.879 293.703 160.178 292.439 160.288 291.239C160.314 290.952 158.973 290.1 158.569 290.278C157.464 290.764 156.073 291.449 155.642 292.455C155.325 293.194 155.48 294.157 155.636 295.12ZM148.413 451.246C149.451 450.516 149.525 448.947 148.563 448.11C148.127 447.731 147.767 447.477 147.376 447.404C145.445 447.04 143.152 448.842 143.552 450.437C143.776 451.325 145.329 452.56 146.087 452.427C146.854 452.291 147.57 451.839 148.413 451.246ZM164.688 276.328L163.092 277.939C162.278 278.759 162.087 280.056 162.625 281.098C163.156 282.125 163.6 282.969 164.185 283.095C166.416 283.578 166.865 281.36 166.69 279.748C166.601 278.916 166.015 278.142 165.429 277.369C165.167 277.024 164.906 276.679 164.688 276.328ZM106.816 327.416C107.725 326.609 107.831 325.172 107.047 324.232C106.65 323.758 106.298 323.405 105.881 323.25C104.372 322.694 102.619 324.775 102.817 327.065C102.885 327.844 104.43 329.241 104.613 329.128C105.372 328.663 106.064 328.083 106.816 327.416ZM232.768 279.003L230.054 275.491C229.61 275.922 229.144 276.343 228.732 276.715C227.979 277.397 227.404 277.915 227.472 278.036C228.128 279.196 228.977 280.548 230.074 280.994C230.465 281.154 231.161 280.489 231.855 279.826C232.169 279.527 232.483 279.227 232.768 279.003ZM299.82 285.141C300.116 284.866 300.443 284.562 300.79 284.286C300.448 283.992 300.15 283.688 299.88 283.414C299.351 282.874 298.938 282.454 298.539 282.469C298.089 282.485 297.653 282.948 297.218 283.412C297.027 283.614 296.836 283.817 296.644 283.983C296.823 284.189 296.994 284.419 297.165 284.65H297.166C297.581 285.211 297.996 285.771 298.538 285.989C298.797 286.095 299.251 285.672 299.82 285.141ZM253.379 280.964C254.939 281.98 254.81 284.441 253.233 285.425C252.968 285.59 252.728 285.674 252.507 285.638C251.708 285.505 250.58 283.941 250.6 283.029C250.619 282.2 251.953 280.816 252.772 280.764C252.967 280.751 253.168 280.826 253.379 280.964ZM240.524 296.818C241.108 296.978 241.834 296.578 242.752 296.069C243.211 295.816 243.719 295.535 244.282 295.285C243.854 294.835 243.493 294.386 243.174 293.988C242.57 293.235 242.118 292.672 241.657 292.665C240.93 292.653 240.197 293.096 239.464 293.539C239.152 293.727 238.839 293.915 238.529 294.069C238.727 294.365 238.913 294.714 239.097 295.064C239.52 295.861 239.942 296.657 240.524 296.818ZM111.872 462.587C112.332 463.294 113.283 463.41 113.883 462.832L113.914 462.802C114.563 462.178 115.044 461.714 115.235 461.146C115.741 459.633 114.022 457.594 112.465 457.938C111.689 458.111 110.477 459.444 110.588 460.012C110.752 460.866 111.259 461.646 111.872 462.587ZM187.941 285.68C187.359 284.104 185.253 284.033 184.407 285.472C184.135 285.934 183.939 286.364 183.85 286.819C183.765 287.266 184.296 287.843 184.828 288.421C185.07 288.683 185.311 288.945 185.494 289.195C185.746 288.911 186.02 288.637 186.295 288.363C186.967 287.693 187.639 287.022 187.983 286.2C188.039 286.063 188.019 285.891 187.941 285.68ZM208.542 289.083C208.29 288.816 208.015 288.525 207.756 288.197C207.108 288.967 206.638 289.525 206.212 290.032L205.808 290.511C206.554 291.187 207.302 291.863 208.048 292.538C208.205 292.331 208.397 292.126 208.59 291.92C209.029 291.45 209.47 290.979 209.47 290.508C209.47 290.067 209.053 289.625 208.542 289.083ZM186.978 297.187L187.77 296.644C187.488 296.331 187.244 296.007 187.022 295.713C186.572 295.116 186.207 294.633 185.786 294.569C185.351 294.503 184.855 294.895 184.358 295.286C184.14 295.457 183.922 295.628 183.71 295.762C184.24 296.62 184.77 297.477 185.301 298.336C185.808 297.988 186.314 297.642 186.978 297.187ZM407.185 402.028C404.096 401.635 401.59 399.123 401.807 396.638C402.005 394.392 404.479 392.619 407.097 392.846C409.742 393.077 412.021 395.689 411.719 398.143C411.423 400.54 409.363 402.306 407.185 402.028ZM363.664 425.104C363.224 425.463 362.847 425.826 362.508 426.154C361.848 426.79 361.328 427.291 360.76 427.36C359.455 427.521 357.9 427.324 356.769 426.672C355.815 426.124 355.029 425.255 354.243 424.388C353.923 424.034 353.603 423.681 353.272 423.348C351.638 421.712 351.9 418.962 354.029 418.376C355.386 418.001 357.396 418.349 358.493 419.226C359.811 420.279 360.897 421.654 362.061 423.127C362.572 423.773 363.097 424.439 363.664 425.104ZM374.01 362.158C374.368 362.68 374.733 363.132 375.069 363.547C375.722 364.355 376.259 365.02 376.391 365.762C376.43 365.982 376.468 366.201 376.506 366.421C376.995 369.235 377.47 371.967 379.592 374.122C379.934 374.469 379.884 375.9 379.532 376.196C378.92 376.709 377.557 377.205 377.164 376.869C377.058 376.776 376.949 376.684 376.84 376.591C375.402 375.363 373.836 374.025 373.153 372.358C372.245 370.14 372.101 367.512 371.984 365.044C371.96 364.538 372.433 364.006 373.027 363.339C373.34 362.988 373.685 362.6 374.01 362.158ZM334.654 391.592C332.19 388.32 330.255 385.751 328.202 383.021C329.11 380.834 330.999 380.131 333.042 380.899C335.384 381.779 337.134 383.671 337.185 386.49C337.188 386.626 337.191 386.765 337.195 386.903C337.245 388.992 337.301 391.304 334.654 391.592ZM369.221 397.213C368.848 397.23 368.474 397.252 368.1 397.275C367.29 397.323 366.48 397.371 365.669 397.367C362.897 397.353 360.224 395.033 359.984 392.223C359.916 391.433 360.415 390.052 360.95 389.863C361.807 389.56 363.548 389.688 363.806 390.223C365.266 393.245 366.982 395.19 370.587 394.064C370.811 393.992 371.264 394.726 371.717 395.46L371.718 395.461C371.928 395.801 372.138 396.142 372.326 396.402L371.688 396.853L370.827 397.464L370.799 397.484L369.607 398.33C369.482 397.966 369.356 397.602 369.229 397.237L369.221 397.213ZM390.898 388.387C390.717 388.288 390.499 388.189 390.259 388.082C389.656 387.81 388.926 387.482 388.382 386.947C386.912 385.497 387.694 383.168 389.767 382.615C390.465 382.428 391.238 382.356 391.948 382.457L392.016 382.467C393.502 382.679 395.021 382.894 396.399 383.452C396.707 383.576 396.828 385.69 396.424 385.995C395.386 386.774 394.196 387.332 393.007 387.889H393.006C392.616 388.072 392.226 388.255 391.841 388.446C391.753 388.489 391.638 388.473 391.428 388.445C391.295 388.427 391.124 388.403 390.898 388.387ZM375.753 414.278C375.393 415.26 375.087 416.123 374.81 416.9V416.902C374.193 418.637 373.728 419.946 373.169 421.209C372.904 421.806 372.063 422.593 371.603 422.516C370.838 422.39 369.929 421.793 369.517 421.107C369.161 420.515 369.083 419.724 369.008 418.954C368.988 418.748 368.968 418.543 368.942 418.345C368.695 416.39 368.538 414.105 370.661 413.475C371.607 413.194 372.711 413.499 373.933 413.835C374.515 413.996 375.122 414.163 375.753 414.278ZM392.949 365.167C396.249 365.42 396.938 366.771 396.803 368.783C396.666 370.813 395.715 372.022 393.663 371.88C391.486 371.73 388.754 369.433 389.463 368.242C390.137 367.109 391.318 366.305 392.189 365.713C392.491 365.506 392.757 365.326 392.949 365.167ZM340.856 422.326C343.269 422.261 346.562 425.504 346.244 427.224C346.064 428.197 344.879 429.532 343.99 429.683C341.604 430.088 338.828 427.614 339.158 425.463C339.296 424.562 339.883 423.738 340.366 423.057L340.367 423.056C340.557 422.788 340.731 422.545 340.856 422.326ZM335.726 353.004C336.145 353.677 336.565 354.256 336.945 354.778C337.686 355.798 338.271 356.605 338.393 357.481C338.667 359.476 336.601 361.076 334.75 360.564C332.866 360.045 331.129 358.835 331.875 356.576C332.141 355.771 332.951 355.166 333.982 354.394C334.518 353.992 335.115 353.546 335.726 353.004ZM342.445 404.475C342.451 406.47 340.817 408.181 338.838 407.61C337.535 407.234 336.001 405.968 335.514 404.7C334.914 403.141 337.132 401.276 339.113 401.525C340.733 401.729 342.376 402.206 342.445 404.475ZM410.296 381.158C409.861 381.496 409.459 381.877 409.084 382.232C408.335 382.943 407.696 383.548 407.119 383.489C405.178 383.289 404.794 381.438 404.945 379.608C405.105 377.679 406.083 375.981 407.94 376.637C408.584 376.865 408.973 377.885 409.45 379.136C409.694 379.774 409.961 380.474 410.296 381.158ZM383.729 397.751C385.201 395.218 386.76 394.752 388.101 396.403C389.059 397.58 389.863 399.39 389.788 400.865C389.704 402.524 387.958 402.752 386.842 401.754C386.013 401.014 385.356 400.063 384.675 399.077L384.674 399.076C384.369 398.636 384.06 398.189 383.729 397.751ZM369.303 382.174C365.511 381.082 363.463 378.762 364.357 376.887C364.731 376.106 366.311 375.161 366.884 375.417C369.509 376.59 369.647 378.991 369.303 382.174ZM363.118 372.307C362.573 372.268 362.042 372.243 361.523 372.22C360.231 372.162 359.016 372.108 357.857 371.816C357.326 371.683 356.831 370.352 356.779 369.537C356.744 368.985 357.395 368.114 357.945 367.843C359.991 366.839 362.239 368.576 363.118 372.307ZM357.709 411.501C357.332 410.858 356.932 410.281 356.581 409.776C355.926 408.832 355.443 408.136 355.608 407.726C356.081 406.544 357.321 405.359 358.484 404.972C359.047 404.784 361.009 406.77 360.867 407.127C360.485 408.085 359.805 408.912 358.922 409.987L358.921 409.988L358.92 409.99C358.55 410.441 358.144 410.935 357.709 411.501ZM329.463 400.85C328.595 402.361 326.422 402.068 325.763 400.444C325.556 399.934 325.422 399.465 325.403 398.992C325.382 398.514 326.02 398.005 326.659 397.497C326.946 397.267 327.234 397.038 327.461 396.812C327.68 397.148 327.921 397.478 328.163 397.807C328.756 398.615 329.349 399.424 329.588 400.333C329.626 400.479 329.578 400.648 329.463 400.85ZM342.966 412.079C344.103 413.862 345.021 415.299 345.938 416.738C345.674 416.898 345.406 417.107 345.139 417.314C344.554 417.77 343.969 418.225 343.424 418.179C341.472 418.014 339.889 415.685 340.535 414.155C340.722 413.709 341.178 413.388 341.805 412.947C342.146 412.706 342.538 412.431 342.966 412.079ZM385.764 362.789C384.823 363.635 384.04 364.337 383.132 364.689C382.831 364.805 382.228 364.063 381.625 363.32C381.351 362.982 381.075 362.643 380.83 362.387C381.135 362.108 381.434 361.815 381.732 361.521C382.523 360.745 383.312 359.968 384.236 359.453C384.463 359.325 385.004 359.814 385.735 360.474C386.135 360.835 386.592 361.248 387.086 361.638C386.601 362.038 386.167 362.426 385.764 362.789ZM342.809 442.581L342.808 442.58C342.237 441.744 341.836 441.155 341.97 440.771C342.269 439.907 342.917 439.172 343.563 438.438C343.828 438.138 344.093 437.837 344.335 437.527C344.562 437.803 344.856 438.087 345.15 438.371C345.805 439.008 346.46 439.644 346.388 440.171C346.277 440.985 345.7 441.729 344.97 442.671C344.618 443.125 344.232 443.623 343.846 444.197C343.489 443.577 343.122 443.042 342.809 442.581ZM348.447 394.99C347.933 394.103 347.548 393.438 347.7 393.251C348.658 392.07 349.967 391.161 351.276 390.393C351.406 390.315 353.066 392.328 352.897 392.594C352.294 393.548 351.494 394.367 350.524 395.36C350.152 395.742 349.755 396.148 349.336 396.598C349.045 396.024 348.728 395.475 348.448 394.992L348.447 394.99ZM395.298 402.485C395.681 403.114 396.069 403.652 396.408 404.123C397.06 405.027 397.534 405.685 397.457 406.259C397.34 407.112 395.999 408.117 395.035 408.363C394.576 408.481 393.193 406.977 393.217 406.241C393.236 405.584 393.675 404.942 394.28 404.057C394.588 403.607 394.938 403.095 395.298 402.485ZM342.292 376.397C341.751 375.632 341.34 375.047 341.474 374.691C341.743 373.975 342.384 373.414 343.026 372.852L343.027 372.851C343.294 372.618 343.561 372.384 343.801 372.14C344.018 372.414 344.29 372.689 344.561 372.965C345.181 373.592 345.799 374.219 345.776 374.82C345.754 375.398 345.136 375.95 344.374 376.632C343.997 376.969 343.586 377.337 343.192 377.756C342.898 377.257 342.577 376.802 342.292 376.397ZM386.778 408.875C386.359 409.183 385.984 409.513 385.642 409.813C384.966 410.409 384.426 410.884 383.963 410.812C383.412 410.727 382.937 410.107 382.462 409.485C382.254 409.214 382.048 408.945 381.835 408.718C382.048 408.507 382.262 408.241 382.474 407.976C382.955 407.379 383.437 406.781 383.917 406.782C384.451 406.783 384.984 407.277 385.659 407.9C385.992 408.207 386.359 408.547 386.778 408.875ZM290.68 470.368C291.073 470.12 291.443 469.865 291.799 469.619C292.613 469.058 293.362 468.542 294.184 468.242C294.897 467.979 296.328 468.122 296.574 468.587C297.004 469.399 297.103 470.754 296.741 471.599C296.334 472.549 295.691 473.388 295.012 474.274L295.01 474.277L295.007 474.28C294.712 474.666 294.41 475.058 294.119 475.475C293.38 475.42 292.634 475.378 291.886 475.335H291.885H291.88H291.879V475.334H291.878H291.877H291.876C290.135 475.235 288.378 475.135 286.64 474.885C284.606 474.591 283.524 472.139 284.337 469.911C285.17 467.63 286.823 467.984 288.444 468.785C288.983 469.051 289.47 469.433 289.969 469.825C290.201 470.008 290.437 470.192 290.68 470.368ZM286.877 451.745C285.851 452.511 284.69 452.709 283.59 452.897C281.988 453.171 280.514 453.423 279.77 455.366C279.629 455.735 277.828 455.92 277.31 455.498C276.563 454.887 275.894 453.652 275.878 452.671C275.829 449.607 280.884 445.354 283.786 446.059C286.05 446.608 286.346 448.486 286.663 450.501C286.728 450.914 286.794 451.332 286.877 451.745ZM257.601 469.896C257.359 469.708 257.061 469.491 256.726 469.248C255.692 468.497 254.304 467.489 253.124 466.259C252.599 465.711 252.607 463.848 253.103 463.184C253.621 462.487 255.11 462.087 256.01 462.304C258.19 462.83 260.359 463.613 262.352 464.668C263.077 465.053 263.738 466.575 263.611 467.446C263.486 468.294 262.427 469.213 261.569 469.654C261.092 469.901 260.494 469.893 259.55 469.879H259.548C259.02 469.872 258.384 469.863 257.601 469.896ZM210.898 462.572C211.305 462.747 211.647 462.873 211.914 462.972C212.335 463.127 212.569 463.213 212.573 463.311C212.641 464.833 213.439 466.114 214.234 467.39C215.322 469.134 216.402 470.868 215.596 473.19C215.277 474.11 214.386 475.052 213.536 475.428C213.115 475.613 211.816 474.691 211.553 474.001C210.547 471.373 209.546 468.679 209.09 465.91C208.977 465.214 209.598 464.384 210.192 463.59C210.455 463.239 210.712 462.895 210.898 462.572ZM307.137 453.442C306.776 453.714 306.424 454.036 306.094 454.338C305.441 454.935 304.878 455.449 304.533 455.32C302.188 454.449 299.73 453.504 297.798 451.93C296.059 450.511 296.545 447.554 298.331 446.491C300.446 445.233 301.62 446.321 302.558 448.424C302.881 449.15 303.515 449.724 304.149 450.297C304.443 450.565 304.737 450.832 305.001 451.114C305.397 451.538 305.788 451.967 306.275 452.501L306.276 452.502C306.457 452.699 306.651 452.912 306.863 453.143L307.137 453.442ZM226.187 464.14C226.565 464.737 226.952 465.249 227.285 465.691L227.286 465.692C227.885 466.486 228.314 467.053 228.211 467.481C227.624 469.938 228.511 471.385 230.247 472.852C230.805 473.324 231.018 475.221 230.589 475.744C230.089 476.354 228.582 476.563 227.737 476.259C224.951 475.257 222.569 471.246 223.276 468.51C223.513 467.587 224.155 466.779 224.933 465.8C225.327 465.303 225.758 464.761 226.187 464.14ZM312.049 447.397C313.995 445.401 315.858 446.308 316.628 448.106C317.472 450.078 317.564 452.501 317.544 454.724C317.54 455.199 316.869 455.667 316.199 456.137C315.891 456.352 315.582 456.567 315.339 456.782C315.141 456.537 314.915 456.301 314.687 456.064C314.186 455.543 313.685 455.022 313.502 454.398C313.064 452.905 312.783 451.361 312.474 449.665V449.664L312.473 449.663V449.66C312.341 448.936 312.205 448.184 312.049 447.397ZM319.211 461.556C319.521 462.129 319.859 462.755 320.273 463.402L316.316 466.416C316.09 466.044 315.819 465.678 315.547 465.313C314.943 464.5 314.34 463.688 314.234 462.81C313.968 460.6 316.028 458.258 317.32 459.02C318.083 459.47 318.588 460.405 319.21 461.555L319.211 461.556ZM258.158 486.133C257.778 485.298 257.388 484.584 257.058 483.98C256.474 482.91 256.082 482.191 256.277 481.773C256.71 480.848 257.536 480.125 258.363 479.401C258.704 479.102 259.045 478.803 259.36 478.49C259.57 478.726 259.85 478.988 260.129 479.25C260.739 479.823 261.35 480.395 261.245 480.7C260.871 481.788 260.245 482.781 259.394 484.131V484.132L259.393 484.133C259.023 484.72 258.611 485.375 258.158 486.133ZM302.535 458.832C302.928 459.298 303.305 459.706 303.652 460.083C304.461 460.958 305.11 461.663 305.426 462.503C305.573 462.888 303.978 464.571 303.068 464.689C301.34 464.913 299.568 464.045 299.746 461.856C299.795 461.27 300.416 460.736 301.206 460.056C301.621 459.698 302.084 459.3 302.535 458.832ZM239.261 467.942C239.505 468.534 239.754 469.062 239.983 469.547C240.481 470.601 240.883 471.451 240.93 472.324C240.966 472.947 239.645 474.139 238.854 474.226C237.219 474.405 235.791 472.263 236.425 470.613C236.636 470.064 237.164 469.649 237.898 469.073H237.899V469.072C238.298 468.759 238.757 468.398 239.261 467.942ZM293.66 481.505V481.506C293.008 482.273 292.456 482.925 291.894 482.936C291.088 482.949 289.725 481.626 289.552 480.697C289.235 478.991 290.427 477.773 292.114 478.05C292.634 478.135 293.09 478.648 293.665 479.296C293.964 479.631 294.295 480.004 294.684 480.371C294.311 480.737 293.974 481.135 293.66 481.505ZM272.831 466.079C271.837 466.605 271.133 466.978 270.6 466.796C269.975 466.583 269.528 465.79 269.082 464.997C268.888 464.651 268.694 464.306 268.485 464.009C268.755 463.84 269.031 463.621 269.308 463.403C269.93 462.911 270.552 462.419 271.094 462.502C271.739 462.599 272.324 463.125 273.152 463.869C273.581 464.255 274.075 464.7 274.677 465.173C273.968 465.478 273.358 465.8 272.831 466.079ZM243.465 482.555C242.695 483.114 242.111 483.538 241.852 483.378C241.102 482.919 240.525 482.153 239.947 481.388V481.387C239.717 481.082 239.486 480.777 239.246 480.49C239.538 480.316 239.836 480.092 240.134 479.867C240.815 479.355 241.495 478.843 242.11 478.92C242.681 478.992 243.189 479.624 243.812 480.4L243.813 480.401C244.121 480.785 244.459 481.204 244.845 481.609C244.346 481.917 243.88 482.255 243.465 482.555Z" fill="black"/>
<path fill-rule="evenodd" clip-rule="evenodd" d="M260.872 172.894C260.918 169.755 258.188 166.731 255.443 166.748C252.931 166.764 250.562 169.268 250.725 171.737C250.922 174.704 253.841 177.505 256.711 177.391C259.512 177.28 260.833 175.613 260.872 172.894ZM227.628 190.875C230.474 190.982 231.917 189.143 231.946 185.377C231.976 181.382 229.955 178.344 227.115 178.117C224.16 177.881 221.774 180.836 221.791 184.708C221.808 188.197 224.221 190.745 227.628 190.875ZM245.283 211.659C245.119 207.001 235.909 204.993 233.178 208.754C235.216 213.344 241.737 214.991 245.283 211.659ZM242.877 198.155C245.675 198.234 248.471 198.396 251.264 198.761C251.669 198.814 252.074 198.872 252.477 198.938C255.458 199.42 255.345 200.236 255.066 202.25C255.014 202.623 254.957 203.037 254.913 203.498C254.352 209.319 246.165 217.437 240.566 217.67C232.604 218.002 227.472 209.395 229.392 200.594C229.436 200.394 229.474 200.208 229.51 200.034C229.831 198.478 229.937 197.962 231.621 198.003C233.43 198.048 235.238 198.061 237.044 198.074C238.99 198.088 240.934 198.101 242.877 198.155ZM248.822 195.329C252.806 194.373 256.634 188.884 256.696 184.486C256.767 179.45 252.168 176.007 248.366 178.176C245.131 180.019 242.784 182.559 240.158 185.429C239.808 185.812 240.245 187.715 240.97 188.271C241.642 188.79 242.804 188.41 243.355 187.922C244.042 187.314 244.654 186.608 245.265 185.903C246.02 185.031 246.773 184.161 247.662 183.484C248.276 183.015 249.113 182.871 249.97 182.753C250.755 182.645 252.065 183.406 252.17 184.228C252.305 185.272 251.899 186.7 251.478 187.343C250.809 188.362 249.877 189.018 248.927 189.687C248.172 190.219 247.407 190.758 246.752 191.493C246.607 191.656 246.485 191.842 246.378 192.043C245.751 193.232 246.295 194.709 247.517 195.161C247.977 195.331 248.42 195.425 248.822 195.329Z" fill="black"/>
</svg>
