<svg width="162" height="149" viewBox="0 0 162 149" fill="none" xmlns="http://www.w3.org/2000/svg">
<path d="M105.508 146.105C58.5633 156.213 17.8155 131.4 4.7709 97.8409C-6.17766 69.7074 0.0321871 29.5319 42.8761 9.13401C71.8684 -4.65915 99.6367 -1.66683 126.103 14.7658C142.91 25.1897 154.38 39.8342 159.275 58.0669C169.976 97.8651 147.35 129.405 116.118 142.298C112.017 143.988 107.76 145.314 105.508 146.105ZM4.64074 70.6925C5.05733 74.8645 5.09639 79.0972 5.9426 83.1841C14.8993 126.571 59.774 149.389 97.684 143.489C137.508 137.298 164.417 101.295 155.564 64.5012C152.025 49.7446 143.847 36.313 132.079 25.9297C120.312 15.5465 105.492 8.6854 89.5213 6.22712C77.0366 4.28099 64.5388 3.68479 52.4317 7.85679C24.6111 17.4293 4.12004 42.0479 4.67984 70.6316L4.64074 70.6925Z" fill="#C9C9C9"/>
<path d="M50.824 96.1684C53.8611 93.9667 55.8162 92.7383 57.55 91.3033C67.1821 83.1665 76.6451 74.847 86.3947 66.8439C97.1873 57.9651 108.175 49.2813 119.189 40.6458C122.826 37.7997 126.28 37.9822 128.613 40.585C130.711 42.9322 130.464 45.8027 127.44 48.8555C125.126 51.054 122.69 53.1367 120.141 55.0948C111.251 62.3197 102.258 69.4347 93.4331 76.7445C81.9631 86.2557 70.6233 95.9128 59.2051 105.485C57.9794 106.512 56.6722 107.451 55.2948 108.295C49.9899 111.469 46.1707 110.727 42.7818 105.692C41.2305 103.475 40.0157 101.068 39.1715 98.54C36.8644 91.145 34.6876 83.7017 32.7977 76.1973C31.4942 71.1741 32.6674 68.4375 35.587 67.6834C38.5068 66.9294 41.0483 68.6321 43.1079 73.3388C44.8933 77.4013 46.1971 81.6583 47.6178 85.8543C48.5953 88.8706 49.5208 92.033 50.824 96.1684Z" fill="#C9C9C9"/>
</svg>
