<svg width="113" height="123" viewBox="0 0 113 123" fill="none" xmlns="http://www.w3.org/2000/svg">
<path d="M106.935 1.18036C104.523 0.0200632 101.437 0.132362 98.0234 1.50476C95.5714 2.47621 93.2886 3.78399 91.25 5.38489C87.2894 8.48062 83.5369 11.8015 80.0142 15.3285C70.2946 25.2286 59.4531 37.4867 52.7464 53.3441C52.6022 53.6826 52.3554 53.9744 52.0361 54.1839C51.7169 54.3933 51.3391 54.5112 50.9493 54.523C50.5601 54.5305 50.1768 54.4344 49.8442 54.2453C49.5117 54.0564 49.2439 53.7827 49.0723 53.4563C48.6382 52.6017 48.2639 51.8219 47.9166 51.1046C47.3741 49.9041 46.7586 48.7335 46.073 47.5987C45.218 46.2575 44.3762 44.91 43.5346 43.5625C40.8626 39.2458 38.057 34.7855 34.9573 30.6745C31.5601 26.194 26.8352 22.738 21.3635 20.7309C19.0667 19.8306 16.6063 19.3499 14.1157 19.3148C11.5371 19.2798 9.00379 19.9497 6.82784 21.2422C2.81982 23.644 0.508488 28.0295 0.274696 33.5815C-0.05263 41.3604 1.61059 49.177 5.35142 57.5299C13.1137 74.7911 21.163 91.8837 30.1211 110.841C31.4185 113.534 33.0966 116.051 35.1111 118.327C38.7717 122.488 42.9065 123.424 48.1303 121.253C51.2161 119.921 54.102 118.219 56.7142 116.188C67.8497 107.772 76.6608 97.0239 83.8086 87.6167C98.6781 68.0475 107.623 49.0397 111.143 29.5016C112.325 22.9704 113.662 15.5593 111.951 8.29183C111.13 4.84836 109.4 2.38433 106.935 1.18036ZM107.469 16.021C105.739 34.9477 98.8518 53.6684 86.4137 73.2502C76.7743 88.4276 66.2534 100.904 54.2561 111.39C50.1813 114.952 46.7275 117.348 43.4542 117.348C43.0435 117.349 42.6338 117.309 42.232 117.229C38.6314 116.543 36.2932 113 33.8951 107.872C27.155 93.5242 18.3843 74.6475 10.3014 55.4089C7.73249 48.9995 6.17742 42.2748 5.68541 35.4467C5.33137 31.342 6.76097 28.0045 9.60668 26.2953C12.4524 24.5861 16.4003 24.7483 20.2948 26.7945C23.3007 28.3601 28.8317 31.71 32.1251 36.5508C36.1798 42.5209 39.7336 48.8838 43.1738 55.0346C44.6301 57.6422 46.1397 60.3371 47.6561 62.9571C48.6114 64.6102 49.6266 66.282 50.6152 67.8916C50.7824 68.1722 50.9493 68.453 51.123 68.7275C54.4629 67.274 55.1778 65.4026 55.3783 63.8865C57.3222 49.1583 66.2064 37.9357 75.1376 27.7052C80.3574 21.8224 85.9051 16.2003 91.7577 10.862C93.7577 9.13257 95.9553 7.61379 98.3107 6.33312C99.3662 5.70929 100.455 5.08555 101.524 4.37439C101.943 4.10214 102.459 3.98993 102.964 4.06064C103.469 4.13138 103.927 4.37965 104.243 4.75482C107.796 8.96561 107.803 12.3592 107.449 16.046L107.469 16.021Z" fill="#C9C9C9"/>
</svg>
