<svg width="198" height="137" viewBox="0 0 198 137" fill="none" xmlns="http://www.w3.org/2000/svg">
<path fill-rule="evenodd" clip-rule="evenodd" d="M4.45114 119.099C67.909 123.458 130.388 127.749 193.373 132.074C192.571 89.0708 191.954 46.9296 191.047 4.76987C188.047 4.76987 185.844 4.66652 183.653 4.78793C174.47 5.29928 165.292 5.92896 156.108 6.42341C138.654 7.36083 121.192 8.19106 103.741 9.15C80.5949 10.4217 57.4537 11.7725 34.3098 13.091C26.0981 13.5586 17.8869 14.0296 9.2719 14.5217C7.66057 49.481 6.07261 83.9423 4.45114 119.099ZM188.964 0.00862062C192.474 -0.174637 195.444 2.58691 195.586 6.09532C195.782 10.9111 195.971 15.443 196.046 19.9784C196.523 48.6772 196.918 77.378 197.382 106.077C197.517 114.354 197.806 122.626 197.991 130.902C198.108 136.168 197.18 137.06 191.938 136.702C159.987 134.51 128.038 132.304 96.0884 130.103C69.4638 128.269 42.8388 126.438 16.2149 124.593C12.3598 124.326 8.50587 124.03 4.65799 123.674C0.511173 123.288 -0.102952 122.781 0.0125732 118.556C0.240589 110.282 0.698656 102.016 1.08173 93.7472C2.27348 68.0231 3.45609 42.297 4.68231 16.5752C4.97821 10.3733 5.29544 10.1393 11.3768 9.81234C39.1306 8.31785 66.8836 6.82528 94.6366 5.3135C121.47 3.85243 148.302 2.37407 175.134 0.885722C179.728 0.631389 184.316 0.262952 188.91 0.0116924C188.928 0.0109241 188.946 0.00977319 188.964 0.00862062ZM151.352 64.7782C153.133 66.6865 153.124 69.6516 151.276 71.4977C150.972 71.8016 150.665 72.0924 150.347 72.3717C138.519 82.7598 126.659 93.1121 114.8 103.464C113.965 104.194 113.165 105.149 112.174 105.47C111.149 105.801 109.464 105.946 108.863 105.36C107.668 104.196 108.026 102.644 109.477 101.593C110.074 101.161 110.8 100.888 111.35 100.408C123.482 89.8177 135.596 79.2079 148.162 68.2113C145.049 65.1075 142.223 63.0544 138.905 60.0066C130.86 52.6186 125.488 46.4927 115.589 37.6207C114.69 36.8154 113.941 35.8984 113.052 35.1058C111.746 33.9386 110.433 32.6255 112.126 30.9631C113.816 29.3053 115.169 30.7679 116.383 31.8974C120.994 36.1853 125.575 40.5044 130.169 44.8085C136.791 51.0123 143.432 57.1959 150.023 63.4312C150.478 63.8615 150.914 64.3095 151.352 64.7782ZM35.787 73.6499C38.0164 75.182 39.5547 76.3934 41.2325 77.3654C53.5964 84.5247 65.9857 91.6364 78.3712 98.7593C79.1642 99.2161 79.971 99.6498 80.7781 100.083C82.2123 100.855 83.3714 102.041 82.2477 103.53C81.7375 104.207 79.9994 104.252 78.8895 104.091C77.8687 103.941 76.9305 103.152 75.9785 102.605C63.1089 95.2236 50.2425 87.8361 37.3791 80.4435C36.4278 79.8968 35.4097 79.4066 34.5906 78.6954C31.1833 75.7337 30.8605 72.0513 33.8645 68.7937C45.6748 55.9868 57.5397 43.2314 69.3973 30.4702C70.0147 29.8074 70.6682 28.9949 71.4623 28.7371C72.1885 28.5016 73.406 28.646 73.8935 29.1363C74.3695 29.6142 74.5601 30.9439 74.2293 31.5424C73.5373 32.7964 72.4639 33.8553 71.4723 34.9252C61.0017 46.2227 50.5137 57.5036 40.0411 68.7999C38.8094 70.1296 37.6484 71.5238 35.787 73.6499Z" fill="#C9C9C9"/>
</svg>
